<?xml version="1.0" encoding="UTF-8"?>
<svg id="Layer_1" data-name="Layer 1" xmlns="http://www.w3.org/2000/svg" viewBox="0 0 344.3 236.82">
  <defs>
    <style>
      .cls-1 {
        fill: #231f20;
      }

      .cls-2 {
        fill: #fbc87c;
      }

      .cls-2, .cls-3, .cls-4, .cls-5 {
        stroke: #231f20;
        stroke-miterlimit: 10;
      }

      .cls-3 {
        fill: #acd9f4;
      }

      .cls-4 {
        fill: #27aae1;
      }

      .cls-5 {
        fill: #75c69e;
      }
    </style>
  </defs>
  <rect class="cls-5" x=".5" y="195.66" width="343.3" height="40.66" rx="8.4" ry="8.4"/>
  <g>
    <path class="cls-1" d="m137.92,212.45h1.75v3.93h3.35v-3.93h1.75v9.81h-1.75v-4.34h-3.35v4.34h-1.75v-9.81Z"/>
    <path class="cls-1" d="m146.91,220.28c0-1.65,1.45-2.47,5.09-2.73-.06-.82-.55-1.44-1.75-1.44-.83,0-1.65.36-2.41.78l-.64-1.15c.89-.53,2.1-1.03,3.37-1.03,2.04,0,3.17,1.14,3.17,3.19v4.36h-1.43l-.13-.91h-.05c-.77.6-1.76,1.09-2.75,1.09-1.44,0-2.47-.88-2.47-2.16Zm5.09-.1v-1.55c-2.65.17-3.41.72-3.41,1.51,0,.65.57.93,1.3.93s1.43-.35,2.11-.89Z"/>
    <path class="cls-1" d="m156.8,214.89h1.43l.15,1.68h.04c.75-1.2,1.87-1.86,3.13-1.86.59,0,1,.09,1.43.3l-.37,1.47c-.49-.15-.77-.23-1.33-.23-1.01,0-2,.52-2.75,1.95v4.06h-1.74v-7.37Z"/>
    <path class="cls-1" d="m164.66,218.58c0-2.4,1.57-3.87,3.24-3.87.84,0,1.46.32,2.03.86h.04l-.08-1.24v-2.67h1.74v10.59h-1.42l-.13-.86h-.05c-.57.58-1.39,1.04-2.22,1.04-1.9,0-3.14-1.42-3.14-3.85Zm5.23,1.54v-3.31c-.53-.49-1.04-.66-1.57-.66-1.03,0-1.88.88-1.88,2.42s.67,2.44,1.79,2.44c.61,0,1.15-.27,1.67-.88Z"/>
    <path class="cls-1" d="m172.94,214.89h1.69l.66,3.83c.11.71.2,1.39.29,2.11h.05c.08-.72.22-1.42.38-2.11l.68-3.11h1.42l.67,3.11c.15.71.32,1.39.41,2.11h.06c.11-.72.16-1.4.27-2.11l.64-3.83h1.6l-1.35,7.37h-2.1l-.62-2.94c-.11-.58-.21-1.29-.32-2.18h-.06c-.09.78-.18,1.46-.3,2.18l-.6,2.94h-2.08l-1.4-7.37Z"/>
    <path class="cls-1" d="m182.91,220.28c0-1.65,1.45-2.47,5.09-2.73-.06-.82-.55-1.44-1.75-1.44-.83,0-1.65.36-2.41.78l-.64-1.15c.89-.53,2.1-1.03,3.37-1.03,2.04,0,3.17,1.14,3.17,3.19v4.36h-1.43l-.13-.91h-.05c-.77.6-1.76,1.09-2.75,1.09-1.44,0-2.47-.88-2.47-2.16Zm5.09-.1v-1.55c-2.65.17-3.41.72-3.41,1.51,0,.65.57.93,1.3.93s1.43-.35,2.11-.89Z"/>
    <path class="cls-1" d="m192.8,214.89h1.43l.15,1.68h.04c.75-1.2,1.87-1.86,3.13-1.86.59,0,1,.09,1.43.3l-.37,1.47c-.49-.15-.77-.23-1.33-.23-1.01,0-2,.52-2.75,1.95v4.06h-1.74v-7.37Z"/>
    <path class="cls-1" d="m200.78,218.56c0-2.4,1.83-3.85,3.8-3.85,2.2,0,3.42,1.46,3.42,3.5,0,.35-.05.68-.08.87h-5.9v-1.22h4.78l-.33.38c0-1.46-.68-2.19-1.84-2.19-1.22,0-2.16.88-2.16,2.52s1.03,2.53,2.56,2.53c.77,0,1.41-.23,2.07-.6l.59,1.07c-.79.51-1.8.87-2.89.87-2.26,0-4.03-1.42-4.03-3.87Z"/>
  </g>
  <rect class="cls-2" x=".5" y="148.26" width="343.3" height="40.66" rx="8.4" ry="8.4"/>
  <g>
    <path class="cls-1" d="m101.5,169.91c0-3.22,1.58-5.04,3.86-5.04s3.86,1.81,3.86,5.04-1.58,5.13-3.86,5.13-3.86-1.84-3.86-5.13Zm5.92,0c0-2.25-.81-3.52-2.06-3.52s-2.06,1.27-2.06,3.52.81,3.61,2.06,3.61,2.06-1.3,2.06-3.61Z"/>
    <path class="cls-1" d="m111.09,167.49h1.42l.13.84h.05c.64-.6,1.52-1.02,2.37-1.02,1.91,0,3,1.47,3,3.75,0,2.51-1.56,3.97-3.27,3.97-.66,0-1.4-.32-2-.87h-.04l.08,1.29v2.32h-1.73v-10.28Zm5.19,3.58c0-1.47-.52-2.33-1.71-2.33-.56,0-1.15.26-1.74.88v3.31c.54.49,1.16.66,1.6.66,1.05,0,1.85-.86,1.85-2.53Z"/>
    <path class="cls-1" d="m119.78,171.16c0-2.4,1.83-3.85,3.8-3.85,2.2,0,3.42,1.46,3.42,3.5,0,.35-.05.68-.08.87h-5.9v-1.22h4.78l-.33.38c0-1.46-.68-2.19-1.84-2.19-1.22,0-2.16.88-2.16,2.52s1.03,2.53,2.56,2.53c.77,0,1.41-.23,2.07-.6l.59,1.07c-.79.51-1.8.87-2.89.87-2.26,0-4.03-1.42-4.03-3.87Z"/>
    <path class="cls-1" d="m129.81,167.49h1.43l.15,1.68h.04c.75-1.2,1.87-1.86,3.13-1.86.6,0,1,.09,1.43.3l-.37,1.47c-.49-.15-.77-.23-1.33-.23-1.01,0-2,.52-2.75,1.95v4.06h-1.73v-7.37Z"/>
    <path class="cls-1" d="m137.91,172.88c0-1.65,1.45-2.47,5.09-2.73-.06-.82-.55-1.44-1.75-1.44-.83,0-1.65.36-2.41.78l-.64-1.15c.89-.53,2.1-1.03,3.37-1.03,2.04,0,3.17,1.14,3.17,3.19v4.36h-1.43l-.13-.91h-.05c-.77.6-1.76,1.09-2.75,1.09-1.44,0-2.47-.88-2.47-2.16Zm5.09-.1v-1.55c-2.65.17-3.41.72-3.41,1.51,0,.65.57.93,1.3.93s1.43-.35,2.11-.89Z"/>
    <path class="cls-1" d="m148.7,171.89v-3.03h-1.97v-1.29l2.04-.08.23-2.31h1.44v2.31h3.35v1.37h-3.35v3.02c0,1.22.46,1.77,1.7,1.77.61,0,1.12-.12,1.6-.3l.34,1.26c-.66.22-1.4.42-2.36.42-2.25,0-3.02-1.26-3.02-3.14Z"/>
    <path class="cls-1" d="m159.3,168.86h-3.18v-1.37h4.92v7.37h-1.73v-5.99Zm-.48-3.87c0-.69.52-1.17,1.23-1.17s1.23.48,1.23,1.17-.52,1.16-1.23,1.16-1.23-.46-1.23-1.16Z"/>
    <path class="cls-1" d="m165.09,167.49h1.42l.13,1.11h.06c.71-.71,1.53-1.29,2.66-1.29,1.7,0,2.47,1.09,2.47,2.98v4.56h-1.74v-4.34c0-1.18-.38-1.72-1.37-1.72-.73,0-1.22.35-1.89,1.04v5.02h-1.73v-7.37Z"/>
    <path class="cls-1" d="m173.78,176.15c0-.6.41-1.14,1.18-1.55v-.06c-.4-.23-.75-.61-.75-1.23,0-.48.34-1.01.88-1.38v-.06c-.52-.37-.94-1.03-.94-1.9,0-1.69,1.41-2.65,3.03-2.65.43,0,.82.06,1.15.18h3.02v1.32h-1.69c.25.28.47.74.47,1.22,0,1.64-1.29,2.5-2.95,2.5-.34,0-.74-.07-1.12-.21-.29.19-.45.4-.45.69,0,.48.47.7,1.39.7h1.5c1.91,0,2.9.51,2.9,1.8,0,1.46-1.65,2.62-4.25,2.62-2.03,0-3.37-.65-3.37-1.96Zm5.95-.36c0-.58-.51-.73-1.48-.73h-1.18c-.48,0-.83-.03-1.12-.11-.53.3-.73.62-.73.97,0,.66.78,1.04,2.13,1.04,1.44,0,2.38-.55,2.38-1.17Zm-1.15-5.83c0-.9-.63-1.46-1.4-1.46s-1.39.56-1.39,1.46.63,1.48,1.39,1.48,1.4-.55,1.4-1.48Z"/>
    <path class="cls-1" d="m191.73,173.6l1.01-1.2c.74.67,1.71,1.12,2.74,1.12,1.14,0,1.75-.5,1.75-1.19,0-.87-.67-1.11-1.63-1.51l-1.35-.59c-1.03-.4-2.09-1.16-2.09-2.6,0-1.56,1.41-2.76,3.41-2.76,1.2,0,2.34.47,3.14,1.25l-.89,1.11c-.67-.53-1.35-.84-2.33-.84-.93,0-1.56.42-1.56,1.14,0,.76.78,1.04,1.67,1.38l1.29.56c1.25.48,2.13,1.23,2.13,2.64,0,1.59-1.34,2.92-3.63,2.92-1.38,0-2.68-.53-3.65-1.43Z"/>
    <path class="cls-1" d="m200.86,177.72l.33-1.34c.2.06.41.1.62.1.94,0,1.48-.52,1.77-1.25l.18-.46-3.3-7.28h1.73l1.5,3.6c.27.67.55,1.43.82,2.18h.06c.23-.72.5-1.48.73-2.18l1.33-3.6h1.65l-3.08,7.7c-.63,1.65-1.52,2.68-3.29,2.68-.39,0-.76-.06-1.05-.15Z"/>
    <path class="cls-1" d="m209.78,173.9l.76-1.11c.88.58,1.88.94,3.08.94,1.02,0,1.5-.39,1.5-.88s-.32-.75-2.04-1.11c-1.97-.41-2.84-1.11-2.84-2.23,0-1.28,1.17-2.2,3.23-2.2,1.22,0,2.34.48,3.08.97l-.8,1.06c-.71-.46-1.56-.74-2.44-.74-.96,0-1.35.37-1.35.82,0,.52.54.7,1.92,1,2.35.52,2.97,1.15,2.97,2.32,0,1.27-1.22,2.29-3.46,2.29-1.38,0-2.7-.52-3.61-1.14Z"/>
    <path class="cls-1" d="m220.7,171.89v-3.03h-1.97v-1.29l2.04-.08.23-2.31h1.44v2.31h3.35v1.37h-3.35v3.02c0,1.22.46,1.77,1.7,1.77.61,0,1.12-.12,1.6-.3l.34,1.26c-.66.22-1.4.42-2.36.42-2.25,0-3.02-1.26-3.02-3.14Z"/>
    <path class="cls-1" d="m227.78,171.16c0-2.4,1.83-3.85,3.8-3.85,2.2,0,3.42,1.46,3.42,3.5,0,.35-.05.68-.08.87h-5.9v-1.22h4.78l-.33.38c0-1.46-.68-2.19-1.84-2.19-1.22,0-2.16.88-2.16,2.52s1.03,2.53,2.56,2.53c.77,0,1.41-.23,2.07-.6l.59,1.07c-.79.51-1.8.87-2.89.87-2.26,0-4.03-1.42-4.03-3.87Z"/>
    <path class="cls-1" d="m236.55,167.49h1.33l.13.94h.04c.33-.64.79-1.12,1.64-1.12.68,0,1.14.42,1.34,1.24.34-.72.83-1.24,1.68-1.24,1.04,0,1.64.86,1.64,2.33v5.22h-1.67v-5.1c0-.65-.17-.97-.59-.97s-.63.3-.92.92v5.15h-1.44v-5.1c0-.65-.17-.97-.58-.97-.39,0-.65.3-.92.92v5.15h-1.67v-7.37Z"/>
  </g>
  <rect class="cls-4" x=".5" y="100.86" width="343.3" height="40.66" rx="8.4" ry="8.4"/>
  <g>
    <path class="cls-1" d="m115.53,117.65h2.57c2.89,0,4.63,1.62,4.63,4.86s-1.74,4.95-4.54,4.95h-2.66v-9.81Zm2.46,8.39c1.87,0,2.94-1.12,2.94-3.53s-1.07-3.44-2.94-3.44h-.72v6.98h.72Z"/>
    <path class="cls-1" d="m124.16,123.79c0-2.46,1.76-3.87,3.7-3.87s3.7,1.41,3.7,3.87-1.76,3.85-3.7,3.85-3.7-1.41-3.7-3.85Zm5.62,0c0-1.48-.72-2.46-1.92-2.46s-1.92.98-1.92,2.46.72,2.44,1.92,2.44,1.92-.97,1.92-2.44Z"/>
    <path class="cls-1" d="m133.46,123.79c0-2.46,1.94-3.87,4.19-3.87,1.18,0,2.11.45,2.72,1.04l-.82,1.09c-.58-.46-1.16-.71-1.82-.71-1.48,0-2.49.98-2.49,2.46s1,2.44,2.44,2.44c.84,0,1.53-.37,2.1-.81l.73,1.11c-.85.74-1.93,1.12-2.98,1.12-2.31,0-4.07-1.41-4.07-3.85Z"/>
    <path class="cls-1" d="m142.71,116.87h1.73v6.63h.06l3.31-3.4h1.93l-5.3,5.44v1.92h-1.73v-10.59Zm2.95,6.97l1.01-1.1,3.38,4.71h-1.9l-2.5-3.62Z"/>
    <path class="cls-1" d="m151.28,123.77c0-2.4,1.83-3.85,3.8-3.85,2.2,0,3.42,1.46,3.42,3.5,0,.35-.05.68-.08.87h-5.9v-1.22h4.78l-.33.38c0-1.46-.68-2.19-1.84-2.19-1.22,0-2.16.88-2.16,2.52s1.03,2.53,2.56,2.53c.77,0,1.41-.23,2.07-.6l.59,1.07c-.79.51-1.8.87-2.89.87-2.26,0-4.03-1.42-4.03-3.87Z"/>
    <path class="cls-1" d="m161.31,120.09h1.43l.15,1.68h.04c.75-1.2,1.87-1.86,3.13-1.86.59,0,1,.09,1.43.3l-.37,1.47c-.49-.15-.77-.23-1.33-.23-1.01,0-2,.52-2.75,1.95v4.06h-1.74v-7.37Z"/>
    <path class="cls-1" d="m178.28,123.77c0-2.4,1.83-3.85,3.8-3.85,2.2,0,3.42,1.46,3.42,3.5,0,.35-.05.68-.08.87h-5.9v-1.22h4.78l-.33.38c0-1.46-.68-2.19-1.84-2.19-1.22,0-2.16.88-2.16,2.52s1.03,2.53,2.56,2.53c.77,0,1.41-.23,2.07-.6l.59,1.07c-.79.51-1.8.87-2.89.87-2.26,0-4.03-1.42-4.03-3.87Z"/>
    <path class="cls-1" d="m187.59,120.09h1.42l.13,1.11h.06c.71-.71,1.53-1.29,2.66-1.29,1.7,0,2.47,1.09,2.47,2.98v4.56h-1.74v-4.34c0-1.18-.38-1.72-1.37-1.72-.73,0-1.22.35-1.89,1.04v5.02h-1.73v-7.37Z"/>
    <path class="cls-1" d="m196.28,128.76c0-.6.41-1.14,1.18-1.55v-.06c-.4-.23-.75-.61-.75-1.23,0-.48.34-1.01.88-1.38v-.06c-.52-.37-.94-1.03-.94-1.9,0-1.69,1.41-2.65,3.03-2.65.43,0,.82.06,1.15.18h3.02v1.32h-1.69c.25.28.47.74.47,1.22,0,1.64-1.29,2.5-2.95,2.5-.34,0-.74-.07-1.12-.21-.29.19-.45.4-.45.69,0,.48.47.7,1.39.7h1.5c1.91,0,2.9.51,2.9,1.8,0,1.46-1.65,2.62-4.25,2.62-2.03,0-3.37-.65-3.37-1.96Zm5.95-.36c0-.58-.51-.73-1.48-.73h-1.18c-.48,0-.83-.03-1.12-.11-.53.3-.73.62-.73.97,0,.66.78,1.04,2.13,1.04,1.44,0,2.38-.55,2.38-1.17Zm-1.15-5.83c0-.9-.63-1.46-1.4-1.46s-1.39.56-1.39,1.46.63,1.48,1.39,1.48,1.4-.55,1.4-1.48Z"/>
    <path class="cls-1" d="m208.8,121.47h-3.18v-1.37h4.92v7.37h-1.73v-5.99Zm-.48-3.87c0-.69.52-1.17,1.23-1.17s1.23.48,1.23,1.17-.52,1.16-1.23,1.16-1.23-.46-1.23-1.16Z"/>
    <path class="cls-1" d="m214.59,120.09h1.42l.13,1.11h.06c.71-.71,1.53-1.29,2.66-1.29,1.7,0,2.47,1.09,2.47,2.98v4.56h-1.74v-4.34c0-1.18-.38-1.72-1.37-1.72-.73,0-1.22.35-1.89,1.04v5.02h-1.73v-7.37Z"/>
    <path class="cls-1" d="m223.28,123.77c0-2.4,1.83-3.85,3.8-3.85,2.2,0,3.42,1.46,3.42,3.5,0,.35-.05.68-.08.87h-5.9v-1.22h4.78l-.33.38c0-1.46-.68-2.19-1.84-2.19-1.22,0-2.16.88-2.16,2.52s1.03,2.53,2.56,2.53c.77,0,1.41-.23,2.07-.6l.59,1.07c-.79.51-1.8.87-2.89.87-2.26,0-4.03-1.42-4.03-3.87Z"/>
  </g>
  <rect class="cls-3" x=".5" y=".5" width="165.56" height="90.72" rx="8.4" ry="8.4"/>
  <g>
    <path class="cls-1" d="m34.67,19.56c0-3.2,1.95-5.11,4.54-5.11,1.21,0,2.19.58,2.81,1.22l-.97,1.09c-.49-.49-1.07-.79-1.84-.79-1.63,0-2.75,1.34-2.75,3.54s1.12,3.59,2.79,3.59c.8,0,1.44-.37,1.98-.97l.97,1.06c-.78.92-1.82,1.43-3.13,1.43-2.43,0-4.41-1.8-4.41-5.06Z"/>
    <path class="cls-1" d="m43.58,20.76c0-2.46,1.76-3.87,3.7-3.87s3.7,1.41,3.7,3.87-1.76,3.85-3.7,3.85-3.7-1.41-3.7-3.85Zm5.62,0c0-1.48-.72-2.46-1.92-2.46s-1.92.98-1.92,2.46.72,2.44,1.92,2.44,1.92-.97,1.92-2.44Z"/>
    <path class="cls-1" d="m53.02,17.06h1.42l.13,1.11h.06c.7-.71,1.53-1.29,2.66-1.29,1.7,0,2.47,1.09,2.47,2.98v4.56h-1.73v-4.34c0-1.18-.38-1.72-1.37-1.72-.73,0-1.22.35-1.89,1.04v5.02h-1.73v-7.37Z"/>
    <path class="cls-1" d="m63.63,21.47v-3.03h-1.97v-1.29l2.04-.08.23-2.31h1.44v2.31h3.35v1.37h-3.35v3.02c0,1.22.46,1.77,1.7,1.77.61,0,1.12-.12,1.6-.3l.34,1.26c-.66.22-1.4.42-2.36.42-2.25,0-3.02-1.26-3.02-3.14Z"/>
    <path class="cls-1" d="m70.84,22.45c0-1.65,1.45-2.47,5.09-2.73-.06-.83-.55-1.44-1.75-1.44-.83,0-1.65.36-2.41.78l-.64-1.15c.89-.53,2.1-1.03,3.37-1.03,2.04,0,3.17,1.14,3.17,3.19v4.36h-1.43l-.13-.91h-.05c-.77.6-1.76,1.09-2.75,1.09-1.44,0-2.47-.88-2.47-2.16Zm5.09-.1v-1.55c-2.65.17-3.41.72-3.41,1.51,0,.65.57.93,1.3.93s1.43-.35,2.11-.89Z"/>
    <path class="cls-1" d="m83.22,18.44h-3.18v-1.37h4.92v7.37h-1.74v-5.99Zm-.48-3.88c0-.69.52-1.17,1.23-1.17s1.23.48,1.23,1.17-.52,1.16-1.23,1.16-1.23-.46-1.23-1.16Z"/>
    <path class="cls-1" d="m89.02,17.06h1.42l.13,1.11h.06c.7-.71,1.53-1.29,2.66-1.29,1.7,0,2.47,1.09,2.47,2.98v4.56h-1.73v-4.34c0-1.18-.38-1.72-1.37-1.72-.73,0-1.22.35-1.89,1.04v5.02h-1.73v-7.37Z"/>
    <path class="cls-1" d="m97.7,20.74c0-2.4,1.82-3.85,3.8-3.85,2.2,0,3.42,1.46,3.42,3.5,0,.35-.05.68-.08.87h-5.9v-1.22h4.78l-.33.38c0-1.46-.68-2.19-1.84-2.19-1.22,0-2.16.88-2.16,2.52s1.03,2.53,2.56,2.53c.77,0,1.41-.23,2.07-.6l.59,1.07c-.79.51-1.8.87-2.89.87-2.26,0-4.03-1.42-4.03-3.87Z"/>
    <path class="cls-1" d="m107.73,17.06h1.43l.15,1.68h.04c.75-1.2,1.87-1.86,3.13-1.86.6,0,1,.09,1.43.3l-.37,1.47c-.49-.15-.77-.23-1.33-.23-1.01,0-2,.52-2.75,1.95v4.06h-1.73v-7.37Z"/>
    <path class="cls-1" d="m127.25,14.62h2.06l3.18,9.81h-1.86l-1.48-5.21c-.3-1.03-.61-2.15-.88-3.23h-.06c-.28,1.08-.57,2.2-.87,3.23l-1.49,5.21h-1.79l3.18-9.81Zm-1.29,5.78h4.6v1.38h-4.6v-1.38Z"/>
  </g>
  <g>
    <path class="cls-1" d="m18.23,70.04h2.23c1.48,0,2.55.45,2.55,1.77,0,.68-.4,1.34-1.25,1.56v.04c1.04.18,1.62.73,1.62,1.71,0,1.44-1.15,2.11-2.74,2.11h-2.42v-7.19Zm2.12,2.96c1.01,0,1.42-.36,1.42-1.03s-.46-.9-1.39-.9h-.87v1.94h.85Zm.17,3.22c1.05,0,1.62-.36,1.62-1.18,0-.76-.54-1.07-1.62-1.07h-1.01v2.24h1.01Z"/>
    <path class="cls-1" d="m27.14,72.84h-2.33v-1.01h3.61v5.4h-1.27v-4.4Zm-.35-2.84c0-.51.38-.86.9-.86s.9.35.9.86-.38.85-.9.85-.9-.34-.9-.85Z"/>
    <path class="cls-1" d="m31.39,71.83h1.04l.1.81h.04c.52-.52,1.12-.95,1.95-.95,1.25,0,1.81.8,1.81,2.19v3.35h-1.27v-3.18c0-.87-.28-1.26-1.01-1.26-.53,0-.89.26-1.39.76v3.69h-1.27v-5.4Z"/>
    <path class="cls-1" d="m37.86,75.79c0-1.21,1.07-1.81,3.73-2-.04-.6-.41-1.06-1.29-1.06-.61,0-1.21.27-1.77.57l-.47-.84c.66-.39,1.54-.75,2.47-.75,1.5,0,2.32.83,2.32,2.34v3.2h-1.05l-.1-.67h-.04c-.57.44-1.29.8-2.02.8-1.05,0-1.81-.65-1.81-1.58Zm3.73-.07v-1.14c-1.94.13-2.5.53-2.5,1.11,0,.48.42.68.96.68s1.05-.25,1.54-.65Z"/>
    <path class="cls-1" d="m45.11,71.83h1.05l.11,1.23h.03c.55-.88,1.37-1.36,2.3-1.36.44,0,.73.07,1.05.22l-.27,1.08c-.36-.11-.57-.17-.98-.17-.74,0-1.47.38-2.02,1.43v2.98h-1.27v-5.4Z"/>
    <path class="cls-1" d="m53.54,72.84h-2.33v-1.01h3.61v5.4h-1.27v-4.4Zm-.35-2.84c0-.51.38-.86.9-.86s.9.35.9.86-.38.85-.9.85-.9-.34-.9-.85Z"/>
    <path class="cls-1" d="m57.56,74.53c0-1.76,1.34-2.83,2.79-2.83,1.61,0,2.51,1.07,2.51,2.56,0,.25-.03.5-.06.64h-4.33v-.9h3.51l-.24.28c0-1.07-.5-1.61-1.35-1.61-.89,0-1.58.64-1.58,1.85s.76,1.86,1.88,1.86c.57,0,1.03-.17,1.52-.44l.44.79c-.58.38-1.32.64-2.12.64-1.65,0-2.96-1.04-2.96-2.84Z"/>
    <path class="cls-1" d="m64.16,76.53l.56-.81c.64.43,1.38.69,2.26.69.75,0,1.1-.29,1.1-.64s-.24-.55-1.5-.81c-1.44-.3-2.08-.81-2.08-1.64,0-.94.86-1.61,2.37-1.61.9,0,1.71.35,2.26.71l-.59.78c-.52-.34-1.15-.54-1.79-.54-.7,0-.99.27-.99.6,0,.38.4.51,1.41.73,1.73.38,2.18.84,2.18,1.7,0,.93-.9,1.68-2.54,1.68-1.01,0-1.98-.38-2.65-.84Z"/>
    <path class="cls-1" d="m77.04,75.34c0-2.15,3.03-2.42,3.03-3.9,0-.38-.15-.67-.56-.67s-.63.37-.63.92c0,1.24,1.45,2.91,2.81,3.86.5.39.98.65,1.4.77l-.32,1.04c-.59-.16-1.19-.49-1.84-.98-1.62-1.21-3.11-3.27-3.11-4.67,0-.99.66-1.8,1.68-1.8s1.57.61,1.57,1.53c0,1.79-2.81,2.32-2.81,3.83,0,.67.5,1.12,1.18,1.12.49,0,.96-.32,1.36-.79.5-.6.87-1.38,1.08-2.34h1.17c-.28,1.08-.72,2.06-1.37,2.92-.6.71-1.37,1.19-2.4,1.19-1.39,0-2.23-.89-2.23-2.03Z"/>
    <path class="cls-1" d="m91.2,70.04h1.27v6.12h3.38v1.08h-4.65v-7.19Z"/>
    <path class="cls-1" d="m99.74,72.84h-2.33v-1.01h3.61v5.4h-1.27v-4.4Zm-.35-2.84c0-.51.38-.86.9-.86s.9.35.9.86-.38.85-.9.85-.9-.34-.9-.85Z"/>
    <path class="cls-1" d="m105.14,76.64h-.04l-.11.59h-1v-7.77h1.27v2.01l-.05.95h.04c.44-.44,1.06-.72,1.64-.72,1.4,0,2.21,1.08,2.21,2.74,0,1.85-1.14,2.93-2.39,2.93-.52,0-1.1-.26-1.57-.73Zm2.65-2.18c0-1.08-.38-1.71-1.25-1.71-.41,0-.84.19-1.28.65v2.43c.4.36.85.49,1.19.49.75,0,1.35-.63,1.35-1.85Z"/>
    <path class="cls-1" d="m111.11,71.83h1.05l.11,1.23h.03c.55-.88,1.37-1.36,2.3-1.36.44,0,.73.07,1.05.22l-.27,1.08c-.36-.11-.57-.17-.98-.17-.74,0-1.47.38-2.02,1.43v2.98h-1.27v-5.4Z"/>
    <path class="cls-1" d="m117.06,75.79c0-1.21,1.07-1.81,3.73-2-.04-.6-.41-1.06-1.29-1.06-.61,0-1.21.27-1.77.57l-.47-.84c.66-.39,1.54-.75,2.47-.75,1.5,0,2.32.83,2.32,2.34v3.2h-1.05l-.1-.67h-.04c-.57.44-1.29.8-2.02.8-1.05,0-1.81-.65-1.81-1.58Zm3.73-.07v-1.14c-1.94.13-2.5.53-2.5,1.11,0,.48.42.68.96.68s1.05-.25,1.54-.65Z"/>
    <path class="cls-1" d="m124.31,71.83h1.05l.11,1.23h.03c.55-.88,1.37-1.36,2.3-1.36.44,0,.73.07,1.05.22l-.27,1.08c-.36-.11-.57-.17-.98-.17-.74,0-1.47.38-2.02,1.43v2.98h-1.27v-5.4Z"/>
    <path class="cls-1" d="m132.74,72.84h-2.33v-1.01h3.61v5.4h-1.27v-4.4Zm-.35-2.84c0-.51.38-.86.9-.86s.9.35.9.86-.38.85-.9.85-.9-.34-.9-.85Z"/>
    <path class="cls-1" d="m136.76,74.53c0-1.76,1.34-2.83,2.79-2.83,1.61,0,2.51,1.07,2.51,2.56,0,.25-.03.5-.06.64h-4.33v-.9h3.51l-.24.28c0-1.07-.5-1.61-1.35-1.61-.89,0-1.58.64-1.58,1.85s.76,1.86,1.88,1.86c.57,0,1.03-.17,1.52-.44l.44.79c-.58.38-1.32.64-2.12.64-1.65,0-2.96-1.04-2.96-2.84Z"/>
    <path class="cls-1" d="m143.36,76.53l.56-.81c.64.43,1.38.69,2.26.69.75,0,1.1-.29,1.1-.64s-.24-.55-1.5-.81c-1.44-.3-2.08-.81-2.08-1.64,0-.94.86-1.61,2.37-1.61.9,0,1.71.35,2.26.71l-.59.78c-.52-.34-1.15-.54-1.79-.54-.7,0-.99.27-.99.6,0,.38.4.51,1.41.73,1.73.38,2.18.84,2.18,1.7,0,.93-.9,1.68-2.54,1.68-1.01,0-1.98-.38-2.65-.84Z"/>
  </g>
  <g>
    <path class="cls-1" d="m33.03,42.14h1.51l2.33,7.19h-1.36l-1.08-3.82c-.22-.76-.45-1.58-.64-2.37h-.04c-.2.8-.42,1.61-.63,2.37l-1.1,3.82h-1.31l2.33-7.19Zm-.95,4.24h3.37v1.01h-3.37v-1.01Z"/>
    <path class="cls-1" d="m37.99,43.93h1.04l.1.62h.04c.47-.44,1.12-.75,1.74-.75,1.4,0,2.2,1.08,2.2,2.75,0,1.84-1.14,2.91-2.4,2.91-.49,0-1.03-.23-1.47-.64h-.03l.06.95v1.7h-1.27v-7.54Zm3.8,2.63c0-1.08-.38-1.71-1.25-1.71-.41,0-.84.19-1.28.65v2.43c.4.36.85.49,1.17.49.77,0,1.36-.63,1.36-1.85Z"/>
    <path class="cls-1" d="m44.59,43.93h1.04l.1.62h.04c.47-.44,1.12-.75,1.74-.75,1.4,0,2.2,1.08,2.2,2.75,0,1.84-1.14,2.91-2.4,2.91-.49,0-1.03-.23-1.47-.64h-.03l.06.95v1.7h-1.27v-7.54Zm3.8,2.63c0-1.08-.38-1.71-1.25-1.71-.41,0-.84.19-1.28.65v2.43c.4.36.85.49,1.17.49.77,0,1.36-.63,1.36-1.85Z"/>
    <path class="cls-1" d="m52.76,47.36v-4.79h-1.8v-1.01h3.08v5.87c0,.72.43,1,.97,1,.28,0,.58-.06.92-.21l.3.94c-.53.2-.9.31-1.53.31-1.26,0-1.93-.77-1.93-2.1Z"/>
    <path class="cls-1" d="m60.14,44.94h-2.33v-1.01h3.61v5.4h-1.27v-4.4Zm-.35-2.84c0-.51.38-.86.9-.86s.9.35.9.86-.38.85-.9.85-.9-.34-.9-.85Z"/>
    <path class="cls-1" d="m64.29,46.64c0-1.81,1.42-2.84,3.07-2.84.86,0,1.55.33,2,.76l-.6.8c-.43-.34-.85-.52-1.33-.52-1.08,0-1.83.72-1.83,1.8s.74,1.79,1.79,1.79c.62,0,1.13-.27,1.54-.59l.53.81c-.63.54-1.42.82-2.18.82-1.7,0-2.98-1.04-2.98-2.83Z"/>
    <path class="cls-1" d="m70.86,47.88c0-1.21,1.07-1.81,3.73-2-.04-.6-.41-1.06-1.29-1.06-.61,0-1.21.27-1.77.57l-.47-.84c.66-.39,1.54-.75,2.47-.75,1.5,0,2.32.83,2.32,2.34v3.2h-1.05l-.1-.67h-.04c-.57.44-1.29.8-2.02.8-1.05,0-1.81-.65-1.81-1.58Zm3.73-.07v-1.14c-1.94.13-2.5.53-2.5,1.11,0,.48.42.68.96.68s1.05-.25,1.54-.65Z"/>
    <path class="cls-1" d="m78.77,47.16v-2.22h-1.45v-.95l1.5-.06.17-1.69h1.05v1.69h2.46v1.01h-2.46v2.22c0,.89.33,1.29,1.25,1.29.45,0,.82-.09,1.18-.22l.25.93c-.48.16-1.03.31-1.73.31-1.65,0-2.21-.93-2.21-2.3Z"/>
    <path class="cls-1" d="m86.54,44.94h-2.33v-1.01h3.61v5.4h-1.27v-4.4Zm-.35-2.84c0-.51.38-.86.9-.86s.9.35.9.86-.38.85-.9.85-.9-.34-.9-.85Z"/>
    <path class="cls-1" d="m90.47,46.64c0-1.81,1.29-2.84,2.71-2.84s2.71,1.04,2.71,2.84-1.29,2.83-2.71,2.83-2.71-1.04-2.71-2.83Zm4.12,0c0-1.09-.53-1.8-1.41-1.8s-1.41.72-1.41,1.8.53,1.79,1.41,1.79,1.41-.71,1.41-1.79Z"/>
    <path class="cls-1" d="m97.39,43.93h1.04l.1.81h.04c.52-.52,1.12-.95,1.95-.95,1.25,0,1.81.8,1.81,2.19v3.35h-1.27v-3.18c0-.87-.28-1.26-1.01-1.26-.53,0-.89.26-1.39.76v3.69h-1.27v-5.4Z"/>
    <path class="cls-1" d="m110.49,46.64c0-1.81,1.42-2.84,3.07-2.84.86,0,1.55.33,2,.76l-.6.8c-.43-.34-.85-.52-1.33-.52-1.08,0-1.83.72-1.83,1.8s.74,1.79,1.79,1.79c.62,0,1.13-.27,1.54-.59l.53.81c-.63.54-1.42.82-2.18.82-1.7,0-2.98-1.04-2.98-2.83Z"/>
    <path class="cls-1" d="m116.87,46.64c0-1.81,1.29-2.84,2.71-2.84s2.71,1.04,2.71,2.84-1.29,2.83-2.71,2.83-2.71-1.04-2.71-2.83Zm4.12,0c0-1.09-.53-1.8-1.41-1.8s-1.41.72-1.41,1.8.53,1.79,1.41,1.79,1.41-.71,1.41-1.79Z"/>
    <path class="cls-1" d="m123.47,46.64c0-1.76,1.15-2.84,2.38-2.84.62,0,1.07.23,1.49.63h.03l-.06-.91v-1.96h1.27v7.77h-1.04l-.1-.63h-.04c-.42.42-1.02.76-1.63.76-1.39,0-2.31-1.04-2.31-2.83Zm3.83,1.13v-2.43c-.39-.36-.76-.49-1.15-.49-.75,0-1.38.64-1.38,1.77s.49,1.79,1.31,1.79c.45,0,.85-.2,1.22-.65Z"/>
    <path class="cls-1" d="m130.16,46.62c0-1.76,1.34-2.83,2.79-2.83,1.61,0,2.51,1.07,2.51,2.56,0,.25-.03.5-.06.64h-4.33v-.9h3.51l-.24.28c0-1.07-.5-1.61-1.35-1.61-.89,0-1.58.64-1.58,1.85s.76,1.86,1.88,1.86c.57,0,1.03-.17,1.52-.44l.44.79c-.58.38-1.32.64-2.12.64-1.65,0-2.96-1.04-2.96-2.84Z"/>
  </g>
  <rect class="cls-3" x="178.24" y=".5" width="165.56" height="90.72" rx="8.4" ry="8.4"/>
  <g>
    <path class="cls-1" d="m212.41,19.56c0-3.2,1.95-5.11,4.54-5.11,1.21,0,2.19.58,2.81,1.22l-.97,1.09c-.49-.49-1.07-.79-1.84-.79-1.63,0-2.75,1.34-2.75,3.54s1.12,3.59,2.79,3.59c.8,0,1.44-.37,1.98-.97l.97,1.06c-.78.92-1.82,1.43-3.13,1.43-2.43,0-4.41-1.8-4.41-5.06Z"/>
    <path class="cls-1" d="m221.32,20.76c0-2.46,1.76-3.87,3.7-3.87s3.7,1.41,3.7,3.87-1.76,3.85-3.7,3.85-3.7-1.41-3.7-3.85Zm5.62,0c0-1.48-.72-2.46-1.92-2.46s-1.92.98-1.92,2.46.72,2.44,1.92,2.44,1.92-.97,1.92-2.44Z"/>
    <path class="cls-1" d="m230.75,17.06h1.42l.13,1.11h.06c.7-.71,1.53-1.29,2.66-1.29,1.7,0,2.47,1.09,2.47,2.98v4.56h-1.73v-4.34c0-1.18-.38-1.72-1.37-1.72-.73,0-1.22.35-1.89,1.04v5.02h-1.73v-7.37Z"/>
    <path class="cls-1" d="m241.37,21.47v-3.03h-1.97v-1.29l2.04-.08.23-2.31h1.44v2.31h3.35v1.37h-3.35v3.02c0,1.22.46,1.77,1.7,1.77.61,0,1.12-.12,1.6-.3l.34,1.26c-.66.22-1.4.42-2.36.42-2.25,0-3.02-1.26-3.02-3.14Z"/>
    <path class="cls-1" d="m248.58,22.45c0-1.65,1.45-2.47,5.09-2.73-.06-.83-.55-1.44-1.75-1.44-.83,0-1.65.36-2.41.78l-.64-1.15c.89-.53,2.1-1.03,3.37-1.03,2.04,0,3.17,1.14,3.17,3.19v4.36h-1.43l-.13-.91h-.05c-.77.6-1.76,1.09-2.75,1.09-1.44,0-2.47-.88-2.47-2.16Zm5.09-.1v-1.55c-2.65.17-3.41.72-3.41,1.51,0,.65.57.93,1.3.93s1.43-.35,2.11-.89Z"/>
    <path class="cls-1" d="m260.96,18.44h-3.18v-1.37h4.92v7.37h-1.74v-5.99Zm-.48-3.88c0-.69.52-1.17,1.23-1.17s1.23.48,1.23,1.17-.52,1.16-1.23,1.16-1.23-.46-1.23-1.16Z"/>
    <path class="cls-1" d="m266.75,17.06h1.42l.13,1.11h.06c.7-.71,1.53-1.29,2.66-1.29,1.7,0,2.47,1.09,2.47,2.98v4.56h-1.73v-4.34c0-1.18-.38-1.72-1.37-1.72-.73,0-1.22.35-1.89,1.04v5.02h-1.73v-7.37Z"/>
    <path class="cls-1" d="m275.44,20.74c0-2.4,1.82-3.85,3.8-3.85,2.2,0,3.42,1.46,3.42,3.5,0,.35-.05.68-.08.87h-5.9v-1.22h4.78l-.33.38c0-1.46-.68-2.19-1.84-2.19-1.22,0-2.16.88-2.16,2.52s1.03,2.53,2.56,2.53c.77,0,1.41-.23,2.07-.6l.59,1.07c-.79.51-1.8.87-2.89.87-2.26,0-4.03-1.42-4.03-3.87Z"/>
    <path class="cls-1" d="m285.47,17.06h1.43l.15,1.68h.04c.75-1.2,1.87-1.86,3.13-1.86.6,0,1,.09,1.43.3l-.37,1.47c-.49-.15-.77-.23-1.33-.23-1.01,0-2,.52-2.75,1.95v4.06h-1.73v-7.37Z"/>
    <path class="cls-1" d="m302.81,14.62h3.04c2.02,0,3.48.61,3.48,2.41,0,.92-.54,1.83-1.7,2.13v.06c1.42.24,2.2,1,2.2,2.33,0,1.96-1.57,2.88-3.73,2.88h-3.3v-9.81Zm2.89,4.03c1.37,0,1.93-.5,1.93-1.41s-.63-1.23-1.89-1.23h-1.19v2.64h1.15Zm.23,4.39c1.44,0,2.21-.49,2.21-1.6,0-1.03-.74-1.46-2.21-1.46h-1.38v3.06h1.38Z"/>
  </g>
  <g>
    <path class="cls-1" d="m195.97,70.04h2.23c1.48,0,2.55.45,2.55,1.77,0,.68-.4,1.34-1.25,1.56v.04c1.04.18,1.62.73,1.62,1.71,0,1.44-1.15,2.11-2.74,2.11h-2.42v-7.19Zm2.12,2.96c1.01,0,1.42-.36,1.42-1.03s-.46-.9-1.39-.9h-.87v1.94h.85Zm.17,3.22c1.05,0,1.62-.36,1.62-1.18,0-.76-.54-1.07-1.62-1.07h-1.01v2.24h1.01Z"/>
    <path class="cls-1" d="m204.88,72.84h-2.33v-1.01h3.61v5.4h-1.27v-4.4Zm-.35-2.84c0-.51.38-.86.9-.86s.9.35.9.86-.38.85-.9.85-.9-.34-.9-.85Z"/>
    <path class="cls-1" d="m209.13,71.83h1.04l.1.81h.04c.52-.52,1.12-.95,1.95-.95,1.25,0,1.81.8,1.81,2.19v3.35h-1.27v-3.18c0-.87-.28-1.26-1.01-1.26-.53,0-.89.26-1.39.76v3.69h-1.27v-5.4Z"/>
    <path class="cls-1" d="m215.6,75.79c0-1.21,1.07-1.81,3.73-2-.04-.6-.41-1.06-1.29-1.06-.61,0-1.21.27-1.77.57l-.47-.84c.66-.39,1.54-.75,2.47-.75,1.5,0,2.32.83,2.32,2.34v3.2h-1.05l-.1-.67h-.04c-.57.44-1.29.8-2.02.8-1.05,0-1.81-.65-1.81-1.58Zm3.73-.07v-1.14c-1.94.13-2.5.53-2.5,1.11,0,.48.42.68.96.68s1.05-.25,1.54-.65Z"/>
    <path class="cls-1" d="m222.85,71.83h1.05l.11,1.23h.03c.55-.88,1.37-1.36,2.3-1.36.44,0,.73.07,1.05.22l-.27,1.08c-.36-.11-.57-.17-.98-.17-.74,0-1.47.38-2.02,1.43v2.98h-1.27v-5.4Z"/>
    <path class="cls-1" d="m231.28,72.84h-2.33v-1.01h3.61v5.4h-1.27v-4.4Zm-.35-2.84c0-.51.38-.86.9-.86s.9.35.9.86-.38.85-.9.85-.9-.34-.9-.85Z"/>
    <path class="cls-1" d="m235.3,74.53c0-1.76,1.34-2.83,2.79-2.83,1.61,0,2.51,1.07,2.51,2.56,0,.25-.03.5-.06.64h-4.33v-.9h3.51l-.24.28c0-1.07-.5-1.61-1.35-1.61-.89,0-1.58.64-1.58,1.85s.76,1.86,1.88,1.86c.57,0,1.03-.17,1.52-.44l.44.79c-.58.38-1.32.64-2.12.64-1.65,0-2.96-1.04-2.96-2.84Z"/>
    <path class="cls-1" d="m241.9,76.53l.56-.81c.64.43,1.38.69,2.26.69.75,0,1.1-.29,1.1-.64s-.24-.55-1.5-.81c-1.44-.3-2.08-.81-2.08-1.64,0-.94.86-1.61,2.37-1.61.9,0,1.71.35,2.26.71l-.59.78c-.52-.34-1.15-.54-1.79-.54-.7,0-.99.27-.99.6,0,.38.4.51,1.41.73,1.73.38,2.18.84,2.18,1.7,0,.93-.9,1.68-2.54,1.68-1.01,0-1.98-.38-2.65-.84Z"/>
    <path class="cls-1" d="m254.78,75.34c0-2.15,3.03-2.42,3.03-3.9,0-.38-.15-.67-.56-.67s-.63.37-.63.92c0,1.24,1.45,2.91,2.81,3.86.5.39.98.65,1.4.77l-.32,1.04c-.59-.16-1.19-.49-1.84-.98-1.62-1.21-3.11-3.27-3.11-4.67,0-.99.66-1.8,1.68-1.8s1.57.61,1.57,1.53c0,1.79-2.81,2.32-2.81,3.83,0,.67.5,1.12,1.18,1.12.49,0,.96-.32,1.36-.79.5-.6.87-1.38,1.08-2.34h1.17c-.28,1.08-.72,2.06-1.37,2.92-.6.71-1.37,1.19-2.4,1.19-1.39,0-2.23-.89-2.23-2.03Z"/>
    <path class="cls-1" d="m268.94,70.04h1.27v6.12h3.38v1.08h-4.65v-7.19Z"/>
    <path class="cls-1" d="m277.48,72.84h-2.33v-1.01h3.61v5.4h-1.27v-4.4Zm-.35-2.84c0-.51.38-.86.9-.86s.9.35.9.86-.38.85-.9.85-.9-.34-.9-.85Z"/>
    <path class="cls-1" d="m282.88,76.64h-.04l-.11.59h-1v-7.77h1.27v2.01l-.05.95h.04c.44-.44,1.06-.72,1.64-.72,1.4,0,2.21,1.08,2.21,2.74,0,1.85-1.14,2.93-2.39,2.93-.52,0-1.1-.26-1.57-.73Zm2.65-2.18c0-1.08-.38-1.71-1.25-1.71-.41,0-.84.19-1.28.65v2.43c.4.36.85.49,1.19.49.75,0,1.35-.63,1.35-1.85Z"/>
    <path class="cls-1" d="m288.85,71.83h1.05l.11,1.23h.03c.55-.88,1.37-1.36,2.3-1.36.44,0,.73.07,1.05.22l-.27,1.08c-.36-.11-.57-.17-.98-.17-.74,0-1.47.38-2.02,1.43v2.98h-1.27v-5.4Z"/>
    <path class="cls-1" d="m294.8,75.79c0-1.21,1.07-1.81,3.73-2-.04-.6-.41-1.06-1.29-1.06-.61,0-1.21.27-1.77.57l-.47-.84c.66-.39,1.54-.75,2.47-.75,1.5,0,2.32.83,2.32,2.34v3.2h-1.05l-.1-.67h-.04c-.57.44-1.29.8-2.02.8-1.05,0-1.81-.65-1.81-1.58Zm3.73-.07v-1.14c-1.94.13-2.5.53-2.5,1.11,0,.48.42.68.96.68s1.05-.25,1.54-.65Z"/>
    <path class="cls-1" d="m302.05,71.83h1.05l.11,1.23h.03c.55-.88,1.37-1.36,2.3-1.36.44,0,.73.07,1.05.22l-.27,1.08c-.36-.11-.57-.17-.98-.17-.74,0-1.46.38-2.02,1.43v2.98h-1.27v-5.4Z"/>
    <path class="cls-1" d="m310.48,72.84h-2.33v-1.01h3.61v5.4h-1.27v-4.4Zm-.35-2.84c0-.51.38-.86.9-.86s.9.35.9.86-.38.85-.9.85-.9-.34-.9-.85Z"/>
    <path class="cls-1" d="m314.5,74.53c0-1.76,1.34-2.83,2.79-2.83,1.61,0,2.51,1.07,2.51,2.56,0,.25-.03.5-.06.64h-4.33v-.9h3.51l-.24.28c0-1.07-.5-1.61-1.35-1.61-.89,0-1.58.64-1.58,1.85s.76,1.86,1.88,1.86c.57,0,1.03-.17,1.52-.44l.43.79c-.58.38-1.32.64-2.12.64-1.66,0-2.96-1.04-2.96-2.84Z"/>
    <path class="cls-1" d="m321.1,76.53l.56-.81c.64.43,1.38.69,2.26.69.75,0,1.1-.29,1.1-.64s-.24-.55-1.5-.81c-1.44-.3-2.08-.81-2.08-1.64,0-.94.86-1.61,2.37-1.61.89,0,1.71.35,2.26.71l-.59.78c-.52-.34-1.15-.54-1.79-.54-.7,0-.99.27-.99.6,0,.38.4.51,1.41.73,1.73.38,2.18.84,2.18,1.7,0,.93-.9,1.68-2.54,1.68-1.01,0-1.98-.38-2.65-.84Z"/>
  </g>
  <g>
    <path class="cls-1" d="m210.77,42.14h1.51l2.33,7.19h-1.36l-1.08-3.82c-.22-.76-.45-1.58-.64-2.37h-.04c-.2.8-.42,1.61-.63,2.37l-1.1,3.82h-1.31l2.33-7.19Zm-.95,4.24h3.37v1.01h-3.37v-1.01Z"/>
    <path class="cls-1" d="m215.73,43.93h1.04l.1.62h.04c.47-.44,1.12-.75,1.74-.75,1.4,0,2.2,1.08,2.2,2.75,0,1.84-1.14,2.91-2.4,2.91-.49,0-1.03-.23-1.47-.64h-.03l.06.95v1.7h-1.27v-7.54Zm3.8,2.63c0-1.08-.38-1.71-1.25-1.71-.41,0-.84.19-1.28.65v2.43c.4.36.85.49,1.17.49.77,0,1.36-.63,1.36-1.85Z"/>
    <path class="cls-1" d="m222.33,43.93h1.04l.1.62h.04c.47-.44,1.12-.75,1.74-.75,1.4,0,2.2,1.08,2.2,2.75,0,1.84-1.14,2.91-2.4,2.91-.49,0-1.03-.23-1.47-.64h-.03l.06.95v1.7h-1.27v-7.54Zm3.8,2.63c0-1.08-.38-1.71-1.25-1.71-.41,0-.84.19-1.28.65v2.43c.4.36.85.49,1.17.49.77,0,1.36-.63,1.36-1.85Z"/>
    <path class="cls-1" d="m230.5,47.36v-4.79h-1.8v-1.01h3.08v5.87c0,.72.43,1,.97,1,.28,0,.58-.06.92-.21l.3.94c-.53.2-.9.31-1.53.31-1.26,0-1.93-.77-1.93-2.1Z"/>
    <path class="cls-1" d="m237.88,44.94h-2.33v-1.01h3.61v5.4h-1.27v-4.4Zm-.35-2.84c0-.51.38-.86.9-.86s.9.35.9.86-.38.85-.9.85-.9-.34-.9-.85Z"/>
    <path class="cls-1" d="m242.03,46.64c0-1.81,1.42-2.84,3.07-2.84.86,0,1.55.33,2,.76l-.6.8c-.43-.34-.85-.52-1.33-.52-1.08,0-1.83.72-1.83,1.8s.74,1.79,1.79,1.79c.62,0,1.13-.27,1.54-.59l.53.81c-.63.54-1.42.82-2.18.82-1.7,0-2.98-1.04-2.98-2.83Z"/>
    <path class="cls-1" d="m248.6,47.88c0-1.21,1.07-1.81,3.73-2-.04-.6-.41-1.06-1.29-1.06-.61,0-1.21.27-1.77.57l-.47-.84c.66-.39,1.54-.75,2.47-.75,1.5,0,2.32.83,2.32,2.34v3.2h-1.05l-.1-.67h-.04c-.57.44-1.29.8-2.02.8-1.05,0-1.81-.65-1.81-1.58Zm3.73-.07v-1.14c-1.94.13-2.5.53-2.5,1.11,0,.48.42.68.96.68s1.05-.25,1.54-.65Z"/>
    <path class="cls-1" d="m256.51,47.16v-2.22h-1.45v-.95l1.5-.06.17-1.69h1.05v1.69h2.46v1.01h-2.46v2.22c0,.89.33,1.29,1.25,1.29.45,0,.82-.09,1.18-.22l.25.93c-.48.16-1.03.31-1.73.31-1.65,0-2.21-.93-2.21-2.3Z"/>
    <path class="cls-1" d="m264.28,44.94h-2.33v-1.01h3.61v5.4h-1.27v-4.4Zm-.35-2.84c0-.51.38-.86.9-.86s.9.35.9.86-.38.85-.9.85-.9-.34-.9-.85Z"/>
    <path class="cls-1" d="m268.21,46.64c0-1.81,1.29-2.84,2.71-2.84s2.71,1.04,2.71,2.84-1.29,2.83-2.71,2.83-2.71-1.04-2.71-2.83Zm4.12,0c0-1.09-.53-1.8-1.41-1.8s-1.41.72-1.41,1.8.53,1.79,1.41,1.79,1.41-.71,1.41-1.79Z"/>
    <path class="cls-1" d="m275.13,43.93h1.04l.1.81h.04c.52-.52,1.12-.95,1.95-.95,1.25,0,1.81.8,1.81,2.19v3.35h-1.27v-3.18c0-.87-.28-1.26-1.01-1.26-.53,0-.89.26-1.39.76v3.69h-1.27v-5.4Z"/>
    <path class="cls-1" d="m288.23,46.64c0-1.81,1.42-2.84,3.07-2.84.86,0,1.55.33,2,.76l-.6.8c-.43-.34-.85-.52-1.33-.52-1.08,0-1.83.72-1.83,1.8s.74,1.79,1.79,1.79c.62,0,1.13-.27,1.54-.59l.53.81c-.63.54-1.42.82-2.18.82-1.7,0-2.98-1.04-2.98-2.83Z"/>
    <path class="cls-1" d="m294.61,46.64c0-1.81,1.29-2.84,2.71-2.84s2.71,1.04,2.71,2.84-1.29,2.83-2.71,2.83-2.71-1.04-2.71-2.83Zm4.12,0c0-1.09-.53-1.8-1.41-1.8s-1.41.72-1.41,1.8.53,1.79,1.41,1.79,1.41-.71,1.41-1.79Z"/>
    <path class="cls-1" d="m301.21,46.64c0-1.76,1.15-2.84,2.38-2.84.62,0,1.07.23,1.49.63h.03l-.06-.91v-1.96h1.27v7.77h-1.04l-.1-.63h-.04c-.42.42-1.02.76-1.63.76-1.39,0-2.31-1.04-2.31-2.83Zm3.83,1.13v-2.43c-.39-.36-.76-.49-1.15-.49-.75,0-1.38.64-1.38,1.77s.49,1.79,1.31,1.79c.45,0,.85-.2,1.22-.65Z"/>
    <path class="cls-1" d="m307.9,46.62c0-1.76,1.34-2.83,2.79-2.83,1.61,0,2.51,1.07,2.51,2.56,0,.25-.03.5-.06.64h-4.33v-.9h3.51l-.24.28c0-1.07-.5-1.61-1.35-1.61-.89,0-1.58.64-1.58,1.85s.76,1.86,1.88,1.86c.57,0,1.03-.17,1.52-.44l.43.79c-.58.38-1.32.64-2.12.64-1.66,0-2.96-1.04-2.96-2.84Z"/>
  </g>
</svg>