<?xml version="1.0" encoding="UTF-8"?>
<svg id="Layer_1" data-name="Layer 1" xmlns="http://www.w3.org/2000/svg" xmlns:xlink="http://www.w3.org/1999/xlink" viewBox="0 0 344.3 236.82">
  <defs>
    <style>
      .cls-1 {
        fill: url(#linear-gradient);
      }

      .cls-2 {
        fill: url(#radial-gradient);
      }

      .cls-2, .cls-3, .cls-4, .cls-5, .cls-6, .cls-7, .cls-8, .cls-9, .cls-10, .cls-11, .cls-12, .cls-13, .cls-14, .cls-15, .cls-16, .cls-17, .cls-18, .cls-19, .cls-20, .cls-21 {
        fill-rule: evenodd;
      }

      .cls-22 {
        stroke: #010101;
        stroke-width: 2.21px;
      }

      .cls-22, .cls-23 {
        fill: #010101;
      }

      .cls-24 {
        stroke-width: .12px;
      }

      .cls-24, .cls-13, .cls-25 {
        fill: #fff;
      }

      .cls-24, .cls-25, .cls-26, .cls-27 {
        stroke: #fff;
      }

      .cls-28 {
        fill: #f3f3f3;
      }

      .cls-29, .cls-14 {
        fill: #00678f;
      }

      .cls-30, .cls-12 {
        fill: #e48d1a;
      }

      .cls-31 {
        fill: #942731;
      }

      .cls-32 {
        fill: #8c1f26;
      }

      .cls-33 {
        fill: #a53039;
      }

      .cls-34 {
        fill: #aa4143;
      }

      .cls-35 {
        fill: #bf7960;
      }

      .cls-36 {
        fill: #c68a66;
      }

      .cls-37 {
        fill: #231f20;
      }

      .cls-38 {
        fill: #092e21;
      }

      .cls-39 {
        fill: #356892;
      }

      .cls-3 {
        fill: url(#linear-gradient-14);
      }

      .cls-4 {
        fill: url(#linear-gradient-11);
      }

      .cls-5 {
        fill: url(#linear-gradient-13);
      }

      .cls-6 {
        fill: url(#linear-gradient-12);
      }

      .cls-7 {
        fill: url(#linear-gradient-10);
      }

      .cls-8 {
        fill: url(#linear-gradient-15);
      }

      .cls-9 {
        fill: url(#linear-gradient-16);
      }

      .cls-40 {
        fill: #fbc87c;
      }

      .cls-40, .cls-41, .cls-42, .cls-43 {
        stroke: #231f20;
        stroke-miterlimit: 10;
      }

      .cls-41 {
        fill: #acd9f4;
      }

      .cls-42 {
        fill: #27aae1;
      }

      .cls-43 {
        fill: #75c69e;
      }

      .cls-10 {
        fill: url(#radial-gradient-2);
      }

      .cls-44 {
        fill: url(#linear-gradient-2);
      }

      .cls-11 {
        fill: #9e1d20;
      }

      .cls-25 {
        stroke-width: .25px;
      }

      .cls-15 {
        fill: url(#linear-gradient-8);
      }

      .cls-16 {
        fill: url(#linear-gradient-9);
      }

      .cls-17 {
        fill: url(#linear-gradient-3);
      }

      .cls-18 {
        fill: url(#linear-gradient-4);
      }

      .cls-19 {
        fill: url(#linear-gradient-6);
      }

      .cls-20 {
        fill: url(#linear-gradient-7);
      }

      .cls-21 {
        fill: url(#linear-gradient-5);
      }

      .cls-26 {
        stroke-linejoin: round;
      }

      .cls-26, .cls-27 {
        fill: none;
        stroke-linecap: round;
        stroke-width: .74px;
      }

      .cls-27 {
        stroke-linejoin: bevel;
      }
    </style>
    <linearGradient id="linear-gradient" x1="403.32" y1="720.86" x2="428.37" y2="699.31" gradientTransform="translate(-173.7 466.85) scale(.56 -.57)" gradientUnits="userSpaceOnUse">
      <stop offset="0" stop-color="#5c9fd3"/>
      <stop offset="1" stop-color="#316a99"/>
    </linearGradient>
    <linearGradient id="linear-gradient-2" x1="438.06" y1="686.26" x2="429.11" y2="698.92" gradientTransform="translate(-173.7 466.85) scale(.56 -.57)" gradientUnits="userSpaceOnUse">
      <stop offset="0" stop-color="#ffd53d"/>
      <stop offset="1" stop-color="#fee875"/>
    </linearGradient>
    <linearGradient id="linear-gradient-3" x1="237.25" y1="757.56" x2="232.89" y2="765.25" gradientTransform="translate(0 842.37) scale(1 -1)" gradientUnits="userSpaceOnUse">
      <stop offset="0" stop-color="#f37657"/>
      <stop offset="0" stop-color="#f37657"/>
      <stop offset=".41" stop-color="#e32f26"/>
      <stop offset=".99" stop-color="#991b1e"/>
      <stop offset="1" stop-color="#991b1e"/>
    </linearGradient>
    <linearGradient id="linear-gradient-4" x1="239.42" y1="764.02" x2="233.8" y2="767.79" gradientTransform="translate(0 842.37) scale(1 -1)" gradientUnits="userSpaceOnUse">
      <stop offset="0" stop-color="#861719"/>
      <stop offset="0" stop-color="#861719"/>
      <stop offset=".99" stop-color="#911a1d"/>
      <stop offset="1" stop-color="#911a1d"/>
    </linearGradient>
    <linearGradient id="linear-gradient-5" x1="234.93" y1="757.33" x2="229.31" y2="761.09" xlink:href="#linear-gradient-4"/>
    <linearGradient id="linear-gradient-6" x1="223.14" y1="766.75" x2="224.01" y2="761.09" gradientTransform="translate(0 842.37) scale(1 -1)" gradientUnits="userSpaceOnUse">
      <stop offset="0" stop-color="#fff"/>
      <stop offset="0" stop-color="#fff"/>
      <stop offset=".23" stop-color="#e67352"/>
      <stop offset=".46" stop-color="#de3e26"/>
      <stop offset=".99" stop-color="#a51e22"/>
      <stop offset="1" stop-color="#a51e22"/>
    </linearGradient>
    <linearGradient id="linear-gradient-7" x1="229.13" y1="772.03" x2="229.45" y2="766.26" gradientTransform="translate(0 842.37) scale(1 -1)" gradientUnits="userSpaceOnUse">
      <stop offset="0" stop-color="#fff"/>
      <stop offset="0" stop-color="#fff"/>
      <stop offset=".23" stop-color="#e3714e"/>
      <stop offset=".56" stop-color="#bc2026"/>
      <stop offset=".99" stop-color="#a71e22"/>
      <stop offset="1" stop-color="#a71e22"/>
    </linearGradient>
    <linearGradient id="linear-gradient-8" x1="234.44" y1="777.36" x2="235.4" y2="773.23" gradientTransform="translate(0 842.37) scale(1 -1)" gradientUnits="userSpaceOnUse">
      <stop offset="0" stop-color="#fff"/>
      <stop offset="0" stop-color="#fff"/>
      <stop offset=".18" stop-color="#e46342"/>
      <stop offset=".4" stop-color="#c72927"/>
      <stop offset=".99" stop-color="#a71e22"/>
      <stop offset="1" stop-color="#a71e22"/>
    </linearGradient>
    <linearGradient id="linear-gradient-9" x1="231.51" y1="778.82" x2="235.64" y2="780.89" gradientTransform="translate(0 842.37) scale(1 -1)" gradientUnits="userSpaceOnUse">
      <stop offset="0" stop-color="#fff"/>
      <stop offset="0" stop-color="#fff"/>
      <stop offset=".54" stop-color="#c82527"/>
      <stop offset=".99" stop-color="#be2026"/>
      <stop offset="1" stop-color="#be2026"/>
    </linearGradient>
    <linearGradient id="linear-gradient-10" x1="219.51" y1="768.19" x2="219.85" y2="764.78" gradientTransform="translate(0 842.37) scale(1 -1)" gradientUnits="userSpaceOnUse">
      <stop offset="0" stop-color="#fff"/>
      <stop offset="0" stop-color="#fff"/>
      <stop offset=".31" stop-color="#dd4326"/>
      <stop offset=".99" stop-color="#be2026"/>
      <stop offset="1" stop-color="#be2026"/>
    </linearGradient>
    <linearGradient id="linear-gradient-11" x1="217.17" y1="763.86" x2="233.18" y2="780.32" gradientTransform="translate(0 842.37) scale(1 -1)" gradientUnits="userSpaceOnUse">
      <stop offset="0" stop-color="#bd2025"/>
      <stop offset="0" stop-color="#bd2025"/>
      <stop offset=".07" stop-color="#fff"/>
      <stop offset=".17" stop-color="#fff"/>
      <stop offset=".27" stop-color="#c83227"/>
      <stop offset=".33" stop-color="#811517"/>
      <stop offset=".46" stop-color="#a21d21"/>
      <stop offset=".72" stop-color="#b21f24"/>
      <stop offset=".99" stop-color="#e62b25"/>
      <stop offset="1" stop-color="#e62b25"/>
    </linearGradient>
    <linearGradient id="linear-gradient-12" x1="229.43" y1="762.2" x2="224.61" y2="763.39" gradientTransform="translate(0 842.37) scale(1 -1)" gradientUnits="userSpaceOnUse">
      <stop offset="0" stop-color="#8b181b"/>
      <stop offset="0" stop-color="#8b181b"/>
      <stop offset=".54" stop-color="#991b1e"/>
      <stop offset=".99" stop-color="#a71e22"/>
      <stop offset="1" stop-color="#a71e22"/>
    </linearGradient>
    <linearGradient id="linear-gradient-13" x1="237.71" y1="767.98" x2="233.43" y2="771.82" gradientTransform="translate(0 842.37) scale(1 -1)" gradientUnits="userSpaceOnUse">
      <stop offset="0" stop-color="#7e1416"/>
      <stop offset="0" stop-color="#7e1416"/>
      <stop offset=".99" stop-color="#9e1c20"/>
      <stop offset="1" stop-color="#9e1c20"/>
    </linearGradient>
    <linearGradient id="linear-gradient-14" x1="239.29" y1="775.03" x2="237.15" y2="777.31" gradientTransform="translate(0 842.37) scale(1 -1)" gradientUnits="userSpaceOnUse">
      <stop offset="0" stop-color="#791715"/>
      <stop offset="0" stop-color="#791715"/>
      <stop offset=".99" stop-color="#9e1d20"/>
      <stop offset="1" stop-color="#9e1d20"/>
    </linearGradient>
    <radialGradient id="radial-gradient" cx="234.1" cy="771.75" fx="234.1" fy="771.75" r="5.25" gradientTransform="translate(0 842.37) scale(1 -1)" gradientUnits="userSpaceOnUse">
      <stop offset="0" stop-color="#a71e22"/>
      <stop offset="0" stop-color="#a71e22"/>
      <stop offset=".99" stop-color="#7e1416"/>
      <stop offset="1" stop-color="#7e1416"/>
    </radialGradient>
    <radialGradient id="radial-gradient-2" cx="226.83" cy="764.83" fx="226.83" fy="764.83" r="6.98" gradientTransform="translate(0 842.37) scale(1 -1)" gradientUnits="userSpaceOnUse">
      <stop offset="0" stop-color="#a11d21"/>
      <stop offset="0" stop-color="#a11d21"/>
      <stop offset=".99" stop-color="#801517"/>
      <stop offset="1" stop-color="#801517"/>
    </radialGradient>
    <linearGradient id="linear-gradient-15" x1="221.89" y1="759.46" x2="220.15" y2="765.35" gradientTransform="translate(0 842.37) scale(1 -1)" gradientUnits="userSpaceOnUse">
      <stop offset="0" stop-color="#8c231c"/>
      <stop offset="0" stop-color="#8c231c"/>
      <stop offset=".43" stop-color="#9e1c20"/>
      <stop offset=".99" stop-color="#b31f24"/>
      <stop offset="1" stop-color="#b31f24"/>
    </linearGradient>
    <linearGradient id="linear-gradient-16" x1="235.22" y1="779" x2="239.12" y2="777.28" gradientTransform="translate(0 842.37) scale(1 -1)" gradientUnits="userSpaceOnUse">
      <stop offset="0" stop-color="#b21f24"/>
      <stop offset="0" stop-color="#b21f24"/>
      <stop offset=".44" stop-color="#911a1d"/>
      <stop offset=".99" stop-color="#791e15"/>
      <stop offset="1" stop-color="#791e15"/>
    </linearGradient>
  </defs>
  <rect class="cls-43" x=".25" y="195.66" width="343.3" height="40.66" rx="8.4" ry="8.4"/>
  <g>
    <path class="cls-37" d="m137.68,212.45h1.75v3.93h3.35v-3.93h1.75v9.81h-1.75v-4.34h-3.35v4.34h-1.75v-9.81Z"/>
    <path class="cls-37" d="m146.66,220.28c0-1.65,1.45-2.47,5.09-2.73-.06-.82-.55-1.44-1.75-1.44-.83,0-1.65.36-2.41.78l-.64-1.15c.89-.53,2.1-1.03,3.37-1.03,2.04,0,3.17,1.14,3.17,3.19v4.36h-1.43l-.13-.91h-.05c-.77.6-1.76,1.09-2.75,1.09-1.44,0-2.47-.88-2.47-2.16Zm5.09-.1v-1.55c-2.65.17-3.41.72-3.41,1.51,0,.65.57.93,1.3.93s1.43-.35,2.11-.89Z"/>
    <path class="cls-37" d="m156.55,214.89h1.43l.15,1.68h.04c.75-1.2,1.87-1.86,3.13-1.86.59,0,1,.09,1.43.3l-.37,1.47c-.49-.15-.77-.23-1.33-.23-1.01,0-2,.52-2.75,1.95v4.06h-1.74v-7.37Z"/>
    <path class="cls-37" d="m164.41,218.58c0-2.4,1.57-3.87,3.24-3.87.84,0,1.46.32,2.03.86h.04l-.08-1.24v-2.67h1.74v10.59h-1.42l-.13-.86h-.05c-.57.58-1.39,1.04-2.22,1.04-1.9,0-3.14-1.42-3.14-3.85Zm5.23,1.54v-3.31c-.53-.49-1.04-.66-1.57-.66-1.03,0-1.88.88-1.88,2.42s.67,2.44,1.79,2.44c.61,0,1.15-.27,1.67-.88Z"/>
    <path class="cls-37" d="m172.69,214.89h1.69l.66,3.83c.11.71.2,1.39.29,2.11h.05c.08-.72.22-1.42.38-2.11l.68-3.11h1.42l.67,3.11c.15.71.32,1.39.41,2.11h.06c.11-.72.16-1.4.27-2.11l.64-3.83h1.6l-1.35,7.37h-2.1l-.62-2.94c-.11-.58-.21-1.29-.32-2.18h-.06c-.09.78-.18,1.46-.3,2.18l-.6,2.94h-2.08l-1.4-7.37Z"/>
    <path class="cls-37" d="m182.66,220.28c0-1.65,1.45-2.47,5.09-2.73-.06-.82-.55-1.44-1.75-1.44-.83,0-1.65.36-2.41.78l-.64-1.15c.89-.53,2.1-1.03,3.37-1.03,2.04,0,3.17,1.14,3.17,3.19v4.36h-1.43l-.13-.91h-.05c-.77.6-1.76,1.09-2.75,1.09-1.44,0-2.47-.88-2.47-2.16Zm5.09-.1v-1.55c-2.65.17-3.41.72-3.41,1.51,0,.65.57.93,1.3.93s1.43-.35,2.11-.89Z"/>
    <path class="cls-37" d="m192.55,214.89h1.43l.15,1.68h.04c.75-1.2,1.87-1.86,3.13-1.86.59,0,1,.09,1.43.3l-.37,1.47c-.49-.15-.77-.23-1.33-.23-1.01,0-2,.52-2.75,1.95v4.06h-1.74v-7.37Z"/>
    <path class="cls-37" d="m200.53,218.56c0-2.4,1.83-3.85,3.8-3.85,2.2,0,3.42,1.46,3.42,3.5,0,.35-.05.68-.08.87h-5.9v-1.22h4.78l-.33.38c0-1.46-.68-2.19-1.84-2.19-1.22,0-2.16.88-2.16,2.52s1.03,2.53,2.56,2.53c.77,0,1.41-.23,2.07-.6l.59,1.07c-.79.51-1.8.87-2.89.87-2.26,0-4.03-1.42-4.03-3.87Z"/>
  </g>
  <rect class="cls-40" x=".25" y="148.26" width="343.3" height="40.66" rx="8.4" ry="8.4"/>
  <g>
    <path class="cls-37" d="m101.25,169.91c0-3.22,1.58-5.04,3.86-5.04s3.86,1.81,3.86,5.04-1.58,5.13-3.86,5.13-3.86-1.84-3.86-5.13Zm5.92,0c0-2.25-.81-3.52-2.06-3.52s-2.06,1.27-2.06,3.52.81,3.61,2.06,3.61,2.06-1.3,2.06-3.61Z"/>
    <path class="cls-37" d="m110.84,167.49h1.42l.13.84h.05c.64-.6,1.52-1.02,2.37-1.02,1.91,0,3,1.47,3,3.75,0,2.51-1.56,3.97-3.27,3.97-.66,0-1.4-.32-2-.87h-.04l.08,1.29v2.32h-1.74v-10.28Zm5.19,3.58c0-1.47-.52-2.33-1.71-2.33-.56,0-1.15.26-1.74.88v3.31c.54.49,1.16.66,1.6.66,1.05,0,1.85-.86,1.85-2.53Z"/>
    <path class="cls-37" d="m119.53,171.16c0-2.4,1.83-3.85,3.8-3.85,2.2,0,3.42,1.46,3.42,3.5,0,.35-.05.68-.08.87h-5.9v-1.22h4.78l-.33.38c0-1.46-.68-2.19-1.84-2.19-1.22,0-2.16.88-2.16,2.52s1.03,2.53,2.56,2.53c.77,0,1.41-.23,2.07-.6l.59,1.07c-.79.51-1.8.87-2.89.87-2.26,0-4.03-1.42-4.03-3.87Z"/>
    <path class="cls-37" d="m129.55,167.49h1.43l.15,1.68h.04c.75-1.2,1.87-1.86,3.13-1.86.59,0,1,.09,1.43.3l-.37,1.47c-.49-.15-.77-.23-1.33-.23-1.01,0-2,.52-2.75,1.95v4.06h-1.74v-7.37Z"/>
    <path class="cls-37" d="m137.66,172.88c0-1.65,1.45-2.47,5.09-2.73-.06-.82-.55-1.44-1.75-1.44-.83,0-1.65.36-2.41.78l-.64-1.15c.89-.53,2.1-1.03,3.37-1.03,2.04,0,3.17,1.14,3.17,3.19v4.36h-1.43l-.13-.91h-.05c-.77.6-1.76,1.09-2.75,1.09-1.44,0-2.47-.88-2.47-2.16Zm5.09-.1v-1.55c-2.65.17-3.41.72-3.41,1.51,0,.65.57.93,1.3.93s1.43-.35,2.11-.89Z"/>
    <path class="cls-37" d="m148.45,171.89v-3.03h-1.97v-1.29l2.04-.08.23-2.31h1.44v2.31h3.35v1.37h-3.35v3.02c0,1.22.46,1.77,1.7,1.77.62,0,1.12-.12,1.6-.3l.34,1.26c-.66.22-1.4.42-2.36.42-2.25,0-3.02-1.26-3.02-3.14Z"/>
    <path class="cls-37" d="m159.05,168.86h-3.18v-1.37h4.92v7.37h-1.73v-5.99Zm-.48-3.87c0-.69.52-1.17,1.23-1.17s1.23.48,1.23,1.17-.52,1.16-1.23,1.16-1.23-.46-1.23-1.16Z"/>
    <path class="cls-37" d="m164.84,167.49h1.42l.13,1.11h.06c.71-.71,1.53-1.29,2.66-1.29,1.7,0,2.47,1.09,2.47,2.98v4.56h-1.74v-4.34c0-1.18-.38-1.72-1.37-1.72-.73,0-1.22.35-1.89,1.04v5.02h-1.73v-7.37Z"/>
    <path class="cls-37" d="m173.53,176.15c0-.6.41-1.14,1.18-1.55v-.06c-.4-.23-.75-.61-.75-1.23,0-.48.34-1.01.88-1.38v-.06c-.52-.37-.94-1.03-.94-1.9,0-1.69,1.41-2.65,3.03-2.65.43,0,.82.06,1.15.18h3.02v1.32h-1.69c.25.28.47.74.47,1.22,0,1.64-1.29,2.5-2.95,2.5-.34,0-.74-.07-1.12-.21-.29.19-.45.4-.45.69,0,.48.47.7,1.39.7h1.5c1.91,0,2.9.51,2.9,1.8,0,1.46-1.65,2.62-4.25,2.62-2.03,0-3.37-.65-3.37-1.96Zm5.95-.36c0-.58-.51-.73-1.48-.73h-1.18c-.48,0-.83-.03-1.12-.11-.53.3-.73.62-.73.97,0,.66.78,1.04,2.13,1.04,1.44,0,2.38-.55,2.38-1.17Zm-1.15-5.83c0-.9-.63-1.46-1.4-1.46s-1.39.56-1.39,1.46.63,1.48,1.39,1.48,1.4-.55,1.4-1.48Z"/>
    <path class="cls-37" d="m191.48,173.6l1.01-1.2c.74.67,1.71,1.12,2.74,1.12,1.14,0,1.75-.5,1.75-1.19,0-.87-.67-1.11-1.63-1.51l-1.35-.59c-1.03-.4-2.09-1.16-2.09-2.6,0-1.56,1.41-2.76,3.41-2.76,1.2,0,2.34.47,3.14,1.25l-.89,1.11c-.67-.53-1.35-.84-2.33-.84-.93,0-1.56.42-1.56,1.14,0,.76.78,1.04,1.67,1.38l1.29.56c1.25.48,2.13,1.23,2.13,2.64,0,1.59-1.34,2.92-3.63,2.92-1.38,0-2.68-.53-3.65-1.43Z"/>
    <path class="cls-37" d="m200.61,177.72l.33-1.34c.2.06.41.1.62.1.94,0,1.48-.52,1.77-1.25l.18-.46-3.3-7.28h1.73l1.5,3.6c.27.67.55,1.43.82,2.18h.06c.23-.72.5-1.48.73-2.18l1.33-3.6h1.65l-3.08,7.7c-.63,1.65-1.52,2.68-3.29,2.68-.39,0-.76-.06-1.05-.15Z"/>
    <path class="cls-37" d="m209.53,173.9l.76-1.11c.88.58,1.88.94,3.08.94,1.02,0,1.5-.39,1.5-.88s-.32-.75-2.04-1.11c-1.97-.41-2.84-1.11-2.84-2.23,0-1.28,1.17-2.2,3.23-2.2,1.22,0,2.34.48,3.08.97l-.8,1.06c-.71-.46-1.56-.74-2.44-.74-.96,0-1.35.37-1.35.82,0,.52.54.7,1.92,1,2.35.52,2.97,1.15,2.97,2.32,0,1.27-1.22,2.29-3.46,2.29-1.38,0-2.7-.52-3.61-1.14Z"/>
    <path class="cls-37" d="m220.45,171.89v-3.03h-1.97v-1.29l2.04-.08.23-2.31h1.44v2.31h3.35v1.37h-3.35v3.02c0,1.22.46,1.77,1.7,1.77.61,0,1.12-.12,1.6-.3l.34,1.26c-.66.22-1.4.42-2.36.42-2.25,0-3.02-1.26-3.02-3.14Z"/>
    <path class="cls-37" d="m227.53,171.16c0-2.4,1.83-3.85,3.8-3.85,2.2,0,3.42,1.46,3.42,3.5,0,.35-.05.68-.08.87h-5.9v-1.22h4.78l-.33.38c0-1.46-.68-2.19-1.84-2.19-1.22,0-2.16.88-2.16,2.52s1.03,2.53,2.56,2.53c.77,0,1.41-.23,2.07-.6l.59,1.07c-.79.51-1.8.87-2.89.87-2.26,0-4.03-1.42-4.03-3.87Z"/>
    <path class="cls-37" d="m236.3,167.49h1.33l.13.94h.04c.33-.64.79-1.12,1.64-1.12.68,0,1.14.42,1.34,1.24.34-.72.83-1.24,1.68-1.24,1.04,0,1.64.86,1.64,2.33v5.22h-1.67v-5.1c0-.65-.17-.97-.59-.97s-.63.3-.92.92v5.15h-1.44v-5.1c0-.65-.17-.97-.58-.97-.39,0-.65.3-.92.92v5.15h-1.67v-7.37Z"/>
  </g>
  <rect class="cls-42" x=".25" y="100.86" width="343.3" height="40.66" rx="8.4" ry="8.4"/>
  <g>
    <path class="cls-37" d="m115.28,117.65h2.57c2.89,0,4.63,1.62,4.63,4.86s-1.74,4.95-4.54,4.95h-2.66v-9.81Zm2.46,8.39c1.87,0,2.94-1.12,2.94-3.53s-1.07-3.44-2.94-3.44h-.72v6.98h.72Z"/>
    <path class="cls-37" d="m123.91,123.79c0-2.46,1.76-3.87,3.7-3.87s3.7,1.41,3.7,3.87-1.76,3.85-3.7,3.85-3.7-1.41-3.7-3.85Zm5.62,0c0-1.48-.72-2.46-1.92-2.46s-1.92.98-1.92,2.46.72,2.44,1.92,2.44,1.92-.97,1.92-2.44Z"/>
    <path class="cls-37" d="m133.21,123.79c0-2.46,1.94-3.87,4.19-3.87,1.18,0,2.11.45,2.72,1.04l-.82,1.09c-.58-.46-1.16-.71-1.82-.71-1.48,0-2.49.98-2.49,2.46s1,2.44,2.44,2.44c.84,0,1.53-.37,2.1-.81l.73,1.11c-.85.74-1.93,1.12-2.98,1.12-2.31,0-4.07-1.41-4.07-3.85Z"/>
    <path class="cls-37" d="m142.46,116.87h1.73v6.63h.06l3.31-3.4h1.93l-5.3,5.44v1.92h-1.73v-10.59Zm2.95,6.97l1.01-1.1,3.38,4.71h-1.9l-2.5-3.62Z"/>
    <path class="cls-37" d="m151.03,123.77c0-2.4,1.83-3.85,3.8-3.85,2.2,0,3.42,1.46,3.42,3.5,0,.35-.05.68-.08.87h-5.9v-1.22h4.78l-.33.38c0-1.46-.68-2.19-1.84-2.19-1.22,0-2.16.88-2.16,2.52s1.03,2.53,2.56,2.53c.77,0,1.41-.23,2.07-.6l.59,1.07c-.79.51-1.8.87-2.89.87-2.26,0-4.03-1.42-4.03-3.87Z"/>
    <path class="cls-37" d="m161.05,120.09h1.43l.15,1.68h.04c.75-1.2,1.87-1.86,3.13-1.86.59,0,1,.09,1.43.3l-.37,1.47c-.49-.15-.77-.23-1.33-.23-1.01,0-2,.52-2.75,1.95v4.06h-1.74v-7.37Z"/>
    <path class="cls-37" d="m178.03,123.77c0-2.4,1.83-3.85,3.8-3.85,2.2,0,3.42,1.46,3.42,3.5,0,.35-.05.68-.08.87h-5.9v-1.22h4.78l-.33.38c0-1.46-.68-2.19-1.84-2.19-1.22,0-2.16.88-2.16,2.52s1.03,2.53,2.56,2.53c.77,0,1.41-.23,2.07-.6l.59,1.07c-.79.51-1.8.87-2.89.87-2.26,0-4.03-1.42-4.03-3.87Z"/>
    <path class="cls-37" d="m187.34,120.09h1.42l.13,1.11h.06c.71-.71,1.53-1.29,2.66-1.29,1.7,0,2.47,1.09,2.47,2.98v4.56h-1.74v-4.34c0-1.18-.38-1.72-1.37-1.72-.73,0-1.22.35-1.89,1.04v5.02h-1.73v-7.37Z"/>
    <path class="cls-37" d="m196.03,128.76c0-.6.41-1.14,1.18-1.55v-.06c-.4-.23-.75-.61-.75-1.23,0-.48.34-1.01.88-1.38v-.06c-.52-.37-.94-1.03-.94-1.9,0-1.69,1.41-2.65,3.03-2.65.43,0,.82.06,1.15.18h3.02v1.32h-1.69c.25.28.47.74.47,1.22,0,1.64-1.29,2.5-2.95,2.5-.34,0-.74-.07-1.12-.21-.29.19-.45.4-.45.69,0,.48.47.7,1.39.7h1.5c1.91,0,2.9.51,2.9,1.8,0,1.46-1.65,2.62-4.25,2.62-2.03,0-3.37-.65-3.37-1.96Zm5.95-.36c0-.58-.51-.73-1.48-.73h-1.18c-.48,0-.83-.03-1.12-.11-.53.3-.73.62-.73.97,0,.66.78,1.04,2.13,1.04,1.44,0,2.38-.55,2.38-1.17Zm-1.15-5.83c0-.9-.63-1.46-1.4-1.46s-1.39.56-1.39,1.46.63,1.48,1.39,1.48,1.4-.55,1.4-1.48Z"/>
    <path class="cls-37" d="m208.55,121.47h-3.18v-1.37h4.92v7.37h-1.73v-5.99Zm-.48-3.87c0-.69.52-1.17,1.23-1.17s1.23.48,1.23,1.17-.52,1.16-1.23,1.16-1.23-.46-1.23-1.16Z"/>
    <path class="cls-37" d="m214.34,120.09h1.42l.13,1.11h.06c.71-.71,1.53-1.29,2.66-1.29,1.7,0,2.47,1.09,2.47,2.98v4.56h-1.74v-4.34c0-1.18-.38-1.72-1.37-1.72-.73,0-1.22.35-1.89,1.04v5.02h-1.73v-7.37Z"/>
    <path class="cls-37" d="m223.03,123.77c0-2.4,1.83-3.85,3.8-3.85,2.2,0,3.42,1.46,3.42,3.5,0,.35-.05.68-.08.87h-5.9v-1.22h4.78l-.33.38c0-1.46-.68-2.19-1.84-2.19-1.22,0-2.16.88-2.16,2.52s1.03,2.53,2.56,2.53c.77,0,1.41-.23,2.07-.6l.59,1.07c-.79.51-1.8.87-2.89.87-2.26,0-4.03-1.42-4.03-3.87Z"/>
  </g>
  <rect class="cls-41" x=".25" y=".5" width="165.56" height="90.72" rx="8.4" ry="8.4"/>
  <g>
    <path class="cls-37" d="m34.42,19.56c0-3.2,1.95-5.11,4.54-5.11,1.21,0,2.19.58,2.81,1.22l-.97,1.09c-.49-.49-1.07-.79-1.84-.79-1.63,0-2.75,1.34-2.75,3.54s1.12,3.59,2.79,3.59c.8,0,1.44-.37,1.98-.97l.97,1.06c-.78.92-1.82,1.43-3.13,1.43-2.43,0-4.41-1.8-4.41-5.06Z"/>
    <path class="cls-37" d="m43.33,20.76c0-2.46,1.76-3.87,3.7-3.87s3.7,1.41,3.7,3.87-1.76,3.85-3.7,3.85-3.7-1.41-3.7-3.85Zm5.62,0c0-1.48-.72-2.46-1.92-2.46s-1.92.98-1.92,2.46.72,2.44,1.92,2.44,1.92-.97,1.92-2.44Z"/>
    <path class="cls-37" d="m52.77,17.06h1.42l.13,1.11h.06c.7-.71,1.53-1.29,2.66-1.29,1.7,0,2.47,1.09,2.47,2.98v4.56h-1.74v-4.34c0-1.18-.38-1.72-1.37-1.72-.73,0-1.22.35-1.89,1.04v5.02h-1.74v-7.37Z"/>
    <path class="cls-37" d="m63.38,21.47v-3.03h-1.97v-1.29l2.04-.08.22-2.31h1.44v2.31h3.35v1.37h-3.35v3.02c0,1.22.46,1.77,1.7,1.77.62,0,1.12-.12,1.6-.3l.34,1.26c-.66.22-1.4.42-2.36.42-2.25,0-3.02-1.26-3.02-3.14Z"/>
    <path class="cls-37" d="m70.59,22.45c0-1.65,1.45-2.47,5.09-2.73-.06-.83-.55-1.44-1.75-1.44-.83,0-1.65.36-2.41.78l-.64-1.15c.89-.53,2.1-1.03,3.37-1.03,2.04,0,3.17,1.14,3.17,3.19v4.36h-1.43l-.13-.91h-.05c-.77.6-1.76,1.09-2.75,1.09-1.44,0-2.47-.88-2.47-2.16Zm5.09-.1v-1.55c-2.65.17-3.41.72-3.41,1.51,0,.65.57.93,1.3.93s1.43-.35,2.11-.89Z"/>
    <path class="cls-37" d="m82.97,18.44h-3.18v-1.37h4.92v7.37h-1.74v-5.99Zm-.48-3.88c0-.69.52-1.17,1.23-1.17s1.23.48,1.23,1.17-.52,1.16-1.23,1.16-1.23-.46-1.23-1.16Z"/>
    <path class="cls-37" d="m88.77,17.06h1.42l.13,1.11h.06c.7-.71,1.53-1.29,2.66-1.29,1.7,0,2.47,1.09,2.47,2.98v4.56h-1.74v-4.34c0-1.18-.38-1.72-1.37-1.72-.73,0-1.22.35-1.89,1.04v5.02h-1.74v-7.37Z"/>
    <path class="cls-37" d="m97.45,20.74c0-2.4,1.83-3.85,3.8-3.85,2.2,0,3.42,1.46,3.42,3.5,0,.35-.05.68-.08.87h-5.9v-1.22h4.78l-.33.38c0-1.46-.68-2.19-1.84-2.19-1.22,0-2.16.88-2.16,2.52s1.03,2.53,2.56,2.53c.77,0,1.41-.23,2.07-.6l.59,1.07c-.79.51-1.8.87-2.89.87-2.26,0-4.03-1.42-4.03-3.87Z"/>
    <path class="cls-37" d="m107.48,17.06h1.43l.15,1.68h.04c.75-1.2,1.87-1.86,3.13-1.86.59,0,1,.09,1.43.3l-.37,1.47c-.49-.15-.77-.23-1.33-.23-1.01,0-2,.52-2.75,1.95v4.06h-1.74v-7.37Z"/>
    <path class="cls-37" d="m127,14.62h2.06l3.18,9.81h-1.86l-1.48-5.21c-.29-1.03-.61-2.15-.88-3.23h-.06c-.28,1.08-.57,2.2-.87,3.23l-1.49,5.21h-1.79l3.18-9.81Zm-1.29,5.78h4.6v1.38h-4.6v-1.38Z"/>
  </g>
  <rect class="cls-41" x="177.99" y=".5" width="165.56" height="90.72" rx="8.4" ry="8.4"/>
  <g>
    <path class="cls-37" d="m212.16,19.56c0-3.2,1.95-5.11,4.54-5.11,1.21,0,2.19.58,2.81,1.22l-.97,1.09c-.49-.49-1.07-.79-1.84-.79-1.63,0-2.75,1.34-2.75,3.54s1.12,3.59,2.79,3.59c.8,0,1.44-.37,1.98-.97l.97,1.06c-.78.92-1.82,1.43-3.13,1.43-2.43,0-4.41-1.8-4.41-5.06Z"/>
    <path class="cls-37" d="m221.07,20.76c0-2.46,1.76-3.87,3.7-3.87s3.7,1.41,3.7,3.87-1.76,3.85-3.7,3.85-3.7-1.41-3.7-3.85Zm5.62,0c0-1.48-.72-2.46-1.92-2.46s-1.92.98-1.92,2.46.72,2.44,1.92,2.44,1.92-.97,1.92-2.44Z"/>
    <path class="cls-37" d="m230.51,17.06h1.42l.13,1.11h.06c.7-.71,1.53-1.29,2.66-1.29,1.7,0,2.47,1.09,2.47,2.98v4.56h-1.73v-4.34c0-1.18-.38-1.72-1.37-1.72-.73,0-1.22.35-1.89,1.04v5.02h-1.73v-7.37Z"/>
    <path class="cls-37" d="m241.12,21.47v-3.03h-1.97v-1.29l2.04-.08.23-2.31h1.44v2.31h3.35v1.37h-3.35v3.02c0,1.22.46,1.77,1.7,1.77.61,0,1.12-.12,1.6-.3l.34,1.26c-.66.22-1.4.42-2.36.42-2.25,0-3.02-1.26-3.02-3.14Z"/>
    <path class="cls-37" d="m248.33,22.45c0-1.65,1.45-2.47,5.09-2.73-.06-.83-.55-1.44-1.75-1.44-.83,0-1.65.36-2.41.78l-.64-1.15c.89-.53,2.1-1.03,3.37-1.03,2.04,0,3.17,1.14,3.17,3.19v4.36h-1.43l-.13-.91h-.05c-.77.6-1.76,1.09-2.75,1.09-1.44,0-2.47-.88-2.47-2.16Zm5.09-.1v-1.55c-2.65.17-3.41.72-3.41,1.51,0,.65.57.93,1.3.93s1.43-.35,2.11-.89Z"/>
    <path class="cls-37" d="m260.71,18.44h-3.18v-1.37h4.92v7.37h-1.74v-5.99Zm-.48-3.88c0-.69.52-1.17,1.23-1.17s1.23.48,1.23,1.17-.52,1.16-1.23,1.16-1.23-.46-1.23-1.16Z"/>
    <path class="cls-37" d="m266.51,17.06h1.42l.13,1.11h.06c.7-.71,1.53-1.29,2.66-1.29,1.7,0,2.47,1.09,2.47,2.98v4.56h-1.73v-4.34c0-1.18-.38-1.72-1.37-1.72-.73,0-1.22.35-1.89,1.04v5.02h-1.73v-7.37Z"/>
    <path class="cls-37" d="m275.19,20.74c0-2.4,1.82-3.85,3.8-3.85,2.2,0,3.42,1.46,3.42,3.5,0,.35-.05.68-.08.87h-5.9v-1.22h4.78l-.33.38c0-1.46-.68-2.19-1.84-2.19-1.22,0-2.16.88-2.16,2.52s1.03,2.53,2.56,2.53c.77,0,1.41-.23,2.07-.6l.59,1.07c-.79.51-1.8.87-2.89.87-2.26,0-4.03-1.42-4.03-3.87Z"/>
    <path class="cls-37" d="m285.22,17.06h1.43l.15,1.68h.04c.75-1.2,1.87-1.86,3.13-1.86.6,0,1,.09,1.43.3l-.37,1.47c-.49-.15-.77-.23-1.33-.23-1.01,0-2,.52-2.75,1.95v4.06h-1.73v-7.37Z"/>
    <path class="cls-37" d="m302.56,14.62h3.04c2.02,0,3.48.61,3.48,2.41,0,.92-.54,1.83-1.7,2.13v.06c1.42.24,2.2,1,2.2,2.33,0,1.96-1.57,2.88-3.73,2.88h-3.3v-9.81Zm2.89,4.03c1.37,0,1.93-.5,1.93-1.41s-.63-1.23-1.89-1.23h-1.19v2.64h1.15Zm.23,4.39c1.44,0,2.21-.49,2.21-1.6,0-1.03-.74-1.46-2.21-1.46h-1.38v3.06h1.38Z"/>
  </g>
  <g>
    <path id="path1948" class="cls-1" d="m66.43,56.69c-1.05,0-2.06.09-2.94.25-2.61.46-3.08,1.42-3.08,3.2v2.35h6.16v.78h-8.47c-1.79,0-3.36,1.08-3.85,3.12-.57,2.35-.59,3.81,0,6.26.44,1.82,1.48,3.12,3.27,3.12h2.12v-2.81c0-2.03,1.76-3.83,3.85-3.83h6.15c1.71,0,3.08-1.41,3.08-3.13v-5.87c0-1.67-1.41-2.92-3.08-3.2-1.06-.18-2.16-.26-3.21-.25Zm-3.33,1.89c.64,0,1.16.53,1.16,1.18,0,.65-.52,1.17-1.16,1.17-.64,0-1.16-.52-1.16-1.17s.52-1.18,1.16-1.18Z"/>
    <path id="path1950" class="cls-44" d="m73.49,63.27v2.74c0,2.12-1.8,3.91-3.85,3.91h-6.15c-1.69,0-3.08,1.44-3.08,3.13v5.87c0,1.67,1.45,2.65,3.08,3.13,1.95.57,3.82.68,6.15,0,1.55-.45,3.08-1.35,3.08-3.13v-2.35h-6.15v-.78h9.23c1.79,0,2.46-1.25,3.08-3.12.64-1.93.62-3.79,0-6.26-.44-1.78-1.29-3.12-3.08-3.12h-2.31Zm-3.46,14.86c.64,0,1.16.52,1.16,1.17s-.52,1.18-1.16,1.18-1.16-.53-1.16-1.18.52-1.17,1.16-1.17Z"/>
  </g>
  <g id="Layer_3">
    <path class="cls-22" d="m104.71,76.11c.17-1.4.12-1.6,1.16-1.38l.26.02c.8.04,1.85-.13,2.46-.41,1.32-.61,2.11-1.64.8-1.37-2.98.61-3.18-.39-3.18-.39,3.14-4.66,4.46-10.58,3.32-12.03-3.09-3.95-8.45-2.08-8.54-2.03h-.03c-.59-.12-1.25-.19-1.99-.2-1.35-.02-2.37.35-3.14.94,0,0-9.55-3.94-9.11,4.95.09,1.89,2.71,14.3,5.83,10.55,1.14-1.37,2.24-2.53,2.24-2.53.55.36,1.2.55,1.89.48l.05-.05c-.02.17,0,.34.02.53-.8.9-.57,1.06-2.17,1.39-1.62.33-.67.93-.05,1.09.76.19,2.5.46,3.68-1.2l-.05.19c.32.25.29,1.81.34,2.93.04,1.11.12,2.15.35,2.77.23.61.5,2.19,2.61,1.74,1.76-.38,3.11-.92,3.24-5.98"/>
    <path class="cls-39" d="m109.4,72.97c-2.98.61-3.18-.39-3.18-.39,3.14-4.66,4.46-10.58,3.32-12.03-3.09-3.95-8.45-2.08-8.54-2.03h-.03c-.59-.12-1.25-.19-1.99-.2-1.35-.02-2.37.35-3.14.94,0,0-9.55-3.93-9.11,4.95.09,1.89,2.71,14.3,5.83,10.55,1.14-1.37,2.24-2.53,2.24-2.53.55.36,1.2.55,1.89.48l.05-.05c-.02.17,0,.34.02.53-.8.9-.57,1.06-2.17,1.39-1.62.33-.67.93-.05,1.09.76.19,2.5.46,3.68-1.2l-.05.19c.31.25.54,1.64.5,2.9-.04,1.26-.06,2.12.19,2.8.25.67.5,2.19,2.61,1.74,1.76-.38,2.68-1.36,2.81-2.99.09-1.16.29-.99.31-2.03l.16-.49c.19-1.57.03-2.08,1.12-1.85l.26.02c.8.04,1.85-.13,2.46-.41,1.32-.61,2.11-1.64.8-1.37h0Z"/>
    <path class="cls-26" d="m98.36,73.87c-.08,2.93.02,5.88.31,6.6.29.72.9,2.11,3.01,1.66,1.76-.38,2.41-1.11,2.68-2.73.21-1.19.6-4.49.65-5.16"/>
    <path class="cls-26" d="m95.83,59.18s-9.56-3.91-9.11,4.98c.09,1.89,2.71,14.3,5.83,10.55,1.14-1.37,2.17-2.45,2.17-2.45"/>
    <path class="cls-26" d="m100.99,58.47c-.33.1,5.32-2.06,8.53,2.04,1.13,1.45-.18,7.37-3.32,12.03"/>
    <path class="cls-27" d="m106.19,72.54s.2,1.01,3.18.39c1.3-.27.52.76-.8,1.37-1.09.5-3.52.63-3.56-.06-.1-1.8,1.28-1.25,1.18-1.7-.09-.41-.71-.8-1.12-1.8-.36-.87-4.9-7.51,1.26-6.52.23-.05-1.61-5.86-7.37-5.95-5.76-.09-5.57,7.09-5.57,7.09"/>
    <path class="cls-26" d="m96.74,73.15c-.8.9-.57,1.06-2.17,1.39-1.62.33-.67.93-.05,1.09.76.19,2.5.46,3.68-1.2.36-.5,0-1.31-.5-1.51-.24-.1-.56-.22-.97.24h0Z"/>
    <path class="cls-26" d="m96.69,73.14c-.08-.53.17-1.16.45-1.89.41-1.1,1.35-2.2.6-5.7-.56-2.61-4.34-.54-4.35-.19,0,.35.17,1.79-.06,3.46-.31,2.18,1.39,4.03,3.34,3.84"/>
    <path class="cls-25" d="m95.79,65.31c-.02.12.22.44.53.49.31.04.57-.21.59-.33.02-.12-.22-.25-.53-.3-.31-.04-.58.02-.59.14h0Z"/>
    <path class="cls-24" d="m105.23,65.06c.02.12-.22.44-.53.49-.31.04-.58-.21-.59-.33-.02-.12.22-.25.53-.3s.58.02.59.14h0Z"/>
    <path class="cls-26" d="m106.34,64.22c.05.95-.2,1.59-.24,2.6-.05,1.46.7,3.14-.43,4.82"/>
  </g>
  <g>
    <path class="cls-38" d="m67.55,31.84h2.89v13.4c-1.48.28-2.57.39-3.76.39-3.53,0-5.37-1.6-5.37-4.66s1.95-4.87,4.98-4.87c.47,0,.83.04,1.26.15,0,0,0-4.41,0-4.41Zm0,6.74c-.34-.11-.62-.15-.98-.15-1.47,0-2.31.9-2.31,2.48s.81,2.39,2.29,2.39c.32,0,.58-.02,1-.08v-4.64Z"/>
    <path class="cls-38" d="m75.05,36.31v6.71c0,2.31-.17,3.42-.68,4.38-.47.92-1.09,1.5-2.37,2.14l-2.69-1.28c1.28-.6,1.9-1.13,2.29-1.94.41-.83.55-1.79.55-4.3v-5.71h2.89Zm-2.89-4.45h2.89v2.97h-2.89v-2.97Z"/>
    <path class="cls-38" d="m76.8,36.97c1.28-.6,2.5-.86,3.83-.86,1.48,0,2.46.39,2.89,1.17.24.43.32,1,.32,2.2v5.88c-1.3.19-2.93.32-4.13.32-2.42,0-3.51-.85-3.51-2.73,0-2.03,1.45-2.97,5-3.27v-.64c0-.53-.26-.71-1-.71-1.07,0-2.27.3-3.4.88v-2.24h0Zm4.53,4.6c-1.92.19-2.54.49-2.54,1.24,0,.56.36.83,1.15.83.43,0,.83-.04,1.39-.13v-1.94h0Z"/>
    <path class="cls-38" d="m85.25,36.76c1.71-.45,3.12-.66,4.55-.66s2.56.34,3.19,1c.6.62.79,1.3.79,2.74v5.68h-2.89v-5.56c0-1.11-.38-1.52-1.41-1.52-.39,0-.75.04-1.33.21v6.88h-2.89v-8.76Z"/>
    <path class="cls-38" d="m94.91,47.1c1.01.53,2.03.77,3.1.77,1.9,0,2.71-.77,2.71-2.61v-.06c-.56.28-1.13.39-1.88.39-2.54,0-4.15-1.67-4.15-4.32,0-3.29,2.39-5.15,6.61-5.15,1.24,0,2.39.13,3.78.41l-.99,2.09c-.77-.15-.06-.02-.64-.08v.3l.04,1.22.02,1.58c.02.39.02.79.04,1.18v.79c0,2.48-.21,3.65-.83,4.6-.9,1.41-2.46,2.1-4.68,2.1-1.13,0-2.1-.17-3.12-.56v-2.67h0Zm5.75-8.64h-.3c-.56-.02-1.22.13-1.67.41-.7.39-1.05,1.11-1.05,2.12,0,1.45.71,2.27,1.99,2.27.39,0,.71-.08,1.09-.19v-1c0-.34-.02-.71-.02-1.11l-.02-1.33-.02-.96v-.23h0Z"/>
    <path class="cls-38" d="m109.57,36.07c2.89,0,4.66,1.82,4.66,4.77s-1.84,4.92-4.77,4.92-4.68-1.82-4.68-4.75c0-3.04,1.84-4.94,4.79-4.94Zm-.06,7.37c1.11,0,1.77-.92,1.77-2.52s-.64-2.52-1.75-2.52-1.8.92-1.8,2.52c0,1.6.66,2.52,1.79,2.52Z"/>
  </g>
  <g>
    <polygon id="polygon3282" class="cls-17" points="235.1 75.94 223.32 82.94 238.58 81.91 239.76 66.52 235.1 75.94"/>
    <polygon id="polygon3293" class="cls-18" points="238.61 81.9 237.29 72.84 233.72 77.56 238.61 81.9"/>
    <polygon id="polygon3304" class="cls-21" points="238.62 81.9 229.01 81.14 223.37 82.92 238.62 81.9"/>
    <polygon id="polygon3319" class="cls-19" points="223.38 82.93 225.78 75.06 220.5 76.19 223.38 82.93"/>
    <polygon id="polygon3334" class="cls-20" points="233.72 77.59 231.51 68.93 225.19 74.86 233.72 77.59"/>
    <polygon id="polygon3349" class="cls-15" points="239.25 69.05 233.28 64.17 231.61 69.55 239.25 69.05"/>
    <polygon id="polygon3362" class="cls-16" points="236.46 62.43 232.94 64.37 230.73 62.41 236.46 62.43"/>
    <polygon id="polygon3375" class="cls-7" points="219.11 78.83 220.58 76.14 219.39 72.94 219.11 78.83"/>
    <path id="path3377" class="cls-13" d="m219.31,72.84l1.2,3.4,5.21-1.17,5.95-5.53,1.68-5.33-2.64-1.87-4.49,1.68c-1.42,1.32-4.16,3.92-4.26,3.97-.1.05-1.81,3.29-2.64,4.84Z"/>
    <path id="path3400" class="cls-4" d="m223.52,66.73c3.07-3.04,7.02-4.84,8.54-3.31,1.52,1.53-.09,5.25-3.16,8.29s-6.97,4.94-8.49,3.4c-1.52-1.53.04-5.35,3.11-8.39Z"/>
    <path id="path3413" class="cls-6" d="m223.38,82.92l2.38-7.89,7.91,2.54c-2.86,2.68-6.04,4.95-10.3,5.35Z"/>
    <path id="path3424" class="cls-5" d="m231.67,69.53l2.03,8.05c2.39-2.51,4.53-5.21,5.59-8.56,0,0-7.62.51-7.62.51Z"/>
    <path id="path3435" class="cls-3" d="m239.27,69.06c.81-2.45,1-5.97-2.83-6.63l-3.15,1.74,5.98,4.89Z"/>
    <path id="path3437" class="cls-11" d="m219.11,78.79c.11,4.05,3.03,4.11,4.28,4.14l-2.87-6.71-1.4,2.57Z"/>
    <path id="path3448" class="cls-2" d="m231.68,69.54c1.84,1.13,5.54,3.4,5.61,3.44.12.07,1.6-2.49,1.93-3.94,0,0-7.54.5-7.54.5Z"/>
    <path id="path3459" class="cls-10" d="m225.76,75.03l3.19,6.14c1.88-1.02,3.36-2.27,4.71-3.6l-7.89-2.55Z"/>
    <path id="path3472" class="cls-8" d="m220.5,76.23l-.45,5.37c.85,1.16,2.02,1.26,3.25,1.17-.89-2.21-2.66-6.64-2.8-6.55Z"/>
    <path id="path3485" class="cls-9" d="m233.27,64.19l6.33.89c-.34-1.43-1.37-2.35-3.14-2.64l-3.19,1.76Z"/>
  </g>
  <g id="layer1">
    <g id="g14301">
      <g id="g14292">
        <path id="rect13917-4-2" class="cls-23" d="m246.88,29.85c-1.36,0-2.8,1.34-2.78,2.75v26.1h19.94c1.36,0,2.8-1.34,2.78-2.75v-26.1h-19.94Zm.57.52h18.79v24.91c.01,1.35-1.35,2.63-2.63,2.63h-18.79v-24.91c-.01-1.35,1.35-2.63,2.63-2.63Z"/>
        <path id="path14091-9" class="cls-32" d="m247.44,30.36c-1.28,0-2.64,1.28-2.63,2.63v13.81l2.34-3.95-2.19-5.42,4.6-7.05h-2.12Zm-2.63,17.2v10.34h4.68l-4.68-10.34h0s0,0,0,0h0Zm21.42.12l-4.19,10.22h1.57c1.28,0,2.64-1.28,2.63-2.63v-7.6h0,0Zm-10.7,4.08l-5.48,6.15h11.91s-6.43-6.15-6.43-6.15h0Z"/>
        <path id="path14232" class="cls-33" d="m249.57,30.37l.06,6.38-4.67.67,2.16,5.36,2.56-6.06,6.38-2.45-6.5-3.91h0Zm-2.49,12.6l-2.26,3.83v.49s5.04,1.49,5.04,1.49l-.08,9.13h.28l5.48-6.14,6.43,6.15h.08s4.19-10.23,4.19-10.23v-.31s-10.7,4.3-10.7,4.3l-5.68-2.89-2.78-5.81h0Z"/>
        <path id="path14234-3" class="cls-31" d="m249.57,30.37l-4.61,7.06,4.67-.67-.06-6.38Zm-4.75,16.91v.3h0l4.68,10.34h.29s.07-9.13.07-9.13l-5.04-1.51h0s0,0,0,0Z"/>
        <path id="path14278" class="cls-36" d="m264.38,42.95l-2.54-6.29-6.25-2.41,6.33-3.87-.08,6.28,4.4,1.36v.39s-1.82,4.55-1.82,4.55l1.82,4.43-4.44,1.78,2.58-6.21Z"/>
        <path id="path14280" class="cls-35" d="m255.6,34.24l6.32-3.87h-12.34s6.01,3.87,6.01,3.87Zm6.24,2.41l4.4,1.36-4.32-7.64-.08,6.28Zm4.4,1.75l-1.84,4.55,1.84,4.42v-8.98h0Z"/>
        <path id="path14282" class="cls-34" d="m266.25,30.33l-4.33.04,4.32,7.64v-7.69Zm-10.74,3.83l-5.81,2.49-2.75,6.25,2.92,5.88,5.68,2.9,6.26-2.52,2.59-6.21-2.55-6.29-6.34-2.49h0Z"/>
      </g>
      <path id="rect14031" class="cls-28" d="m258.38,31.25c-.1,0-.17.01-.19.03-.04.04,0,.21.07.39.12.29.17.33.5.36.2.02.41.04.47.05.06,0,.13-.02.16-.07s0-.22-.04-.38c-.09-.28-.13-.3-.59-.35-.14-.02-.27-.02-.37-.02Zm-3.6.67c-.19,0-.82.35-.87.49-.06.16.54.92.73.92.07,0,.29-.11.48-.23s.35-.28.35-.33c0-.16-.55-.84-.69-.84Zm8.25.61c-.21,0-.03.34.3.54.39.25.59.3.59.16,0-.09-.78-.7-.89-.7Zm-3.96.03c-.3,0-.59.05-1.08.14-1.03.18-2.29.58-2.71.86-1.62,1.06-3.02,2.62-4.29,4.79-1.82,3.09-2.82,6.71-3.14,11.36l-.06.8s.02,0,.04.01h4.54c2.52,0,4.6-.02,4.62-.04.02-.02-.13-.55-.33-1.16-.67-2-1.1-4.34-1.1-5.99,0-2.18.67-4.6,1.73-6.18.57-.85,1.45-1.72,1.74-1.72.11,0,.38-.12.6-.27.22-.15.67-.35,1.01-.45,1.04-.32,2.45-.14,3.75.48.46.22.58.24.64.14.16-.25.07-.44-.44-.85-1.33-1.1-2.76-1.68-4.61-1.86-.31-.03-.54-.05-.75-.05-.04,0-.09,0-.13,0Zm-8.28,2.49c-.2.04-.85.88-.74.99.24.22,1.05.7,1.11.66.04-.02.19-.22.34-.43s.27-.42.27-.46c0-.07-.58-.53-.94-.75,0,0-.02,0-.03,0h0Zm12.21.15c-.07,0-.13.01-.16.04-.05.05-.06.15-.03.23.07.19.72.15.72-.04,0-.12-.31-.24-.52-.24Zm-2.62.09s-.08,0-.14.02c-.32.08-.55.2-.55.29,0,.04.08.14.18.23.1.09.17.21.17.28,0,.14.07.15.43.02.32-.11.32-.15.15-.57-.09-.21-.13-.27-.24-.27Zm-2.25,1.72c-.11,0-.38.29-.38.41,0,.15.44.82.54.82.04,0,.14-.1.22-.22.14-.21.13-.24-.09-.61-.13-.22-.26-.4-.29-.4Zm-10.37,2.9c-.12,0-.5.91-.5,1.19,0,.11.97.54,1.24.55.1,0,.2-.17.34-.58.16-.48.17-.6.08-.69-.15-.13-.99-.48-1.16-.48Zm8.91.04s-.05.02-.07.05c-.05.07-.08.18-.08.23,0,.06-.02.16-.05.24-.03.09.08.26.33.49.43.4.47.41.55.22.13-.35.05-.62-.3-.96-.18-.18-.28-.26-.35-.27,0,0-.02,0-.03,0Zm-.46,3.4c-.1,0-.13.07-.13.23,0,.49.09.61.6.84.67.3.73.29.67-.05-.08-.47-.1-.49-.58-.76-.29-.17-.46-.25-.56-.25Zm-10.2,2.53c-.15,0-.56,1.32-.48,1.54.04.12.37.17,1.21.2h.4s.16-.69.16-.69c.1-.42.13-.73.08-.77-.08-.07-1.11-.28-1.38-.28Zm10.85,1.78s-.04,0-.05.01c-.03.03.02.27.1.53.13.4.19.48.39.51.34.05,1.25.07,1.25.03,0-.18-.37-.84-.5-.87-.37-.11-1.01-.21-1.19-.21Zm6.42,4.29c-.21,0-.43,0-.6.02-.51.05-.68.11-.9.31-.24.21-.28.31-.3.8-.03.45,0,.62.15.85.23.36.48.46,1.18.46.66,0,.79.07.75.4l-.03.25-.99.02-.99.02v.87h1.11c.82,0,1.17-.03,1.36-.13.36-.19.53-.55.53-1.19,0-.5-.02-.56-.3-.84-.3-.3-.34-.31-1.29-.34-.38,0-.53-.1-.53-.32,0-.25.33-.34,1.19-.34h.74v-.77l-.53-.06c-.15-.02-.35-.02-.56-.02Zm-6.67.06l-.46.03-.46.03-.02,1.84c-.01,1.01,0,1.89.02,1.95.03.07.21.11.49.11h.44v-3.96Zm-9.87.01v3.95h.96l.03-.5c.02-.3.06-.51.12-.51.05,0,.29.23.51.51l.41.5h.52c.29,0,.52-.02.52-.05s-.18-.28-.4-.56-.4-.54-.4-.58.18-.23.4-.43l.39-.37s0,0,0-.01v-.67c0-.66-.01-.69-.3-.98l-.3-.3h-2.49Zm6,0c-1.47,0-1.51.07-1.51,2.32v1.63h.44c.44,0,.44,0,.44-.28,0-.46.09-.52.67-.49l.52.02.03.38.03.38.46-.03.46-.03.03-1.45c.04-2.29-.06-2.46-1.56-2.46Zm5.28,0v3.95l1.3-.02,1.3-.02v-.88l-.79-.04-.8-.04-.02-1.47-.02-1.47h-.97Zm-9.67.88c.14,0,.27.02.36.05.2.08.2.87,0,.95-.24.09-.79.06-.9-.05-.06-.06-.11-.25-.11-.42s.05-.36.11-.42c.07-.07.31-.11.54-.11Zm4.38,0c.22,0,.44.04.5.1.06.06.11.31.11.55s-.05.49-.11.55c-.16.16-.82.13-1-.04-.18-.18-.14-.97.06-1.09.07-.04.2-.07.34-.07.03,0,.06,0,.09,0h0Z"/>
    </g>
  </g>
  <g>
    <path class="cls-29" d="m246.73,80.75h1.79v-7.08l2.78,6.17c.33.75.78,1.01,1.65,1.01s1.31-.26,1.64-1.01l2.78-6.17v7.08h1.79v-7.07c0-.69-.28-1.02-.84-1.2-1.36-.43-2.28-.06-2.69.86l-2.72,6.09-2.64-6.09c-.4-.92-1.33-1.29-2.69-.86-.57.17-.84.51-.84,1.2v7.07h0Z"/>
    <path class="cls-29" d="m260.65,74.98h1.79v3.9c-.02.21.07.71,1.05.72.5,0,3.87,0,3.9,0v-4.64h1.8s0,6.33,0,6.36c0,1.56-1.94,1.9-2.84,1.93h-5.66v-1.21s5.66,0,5.67,0c1.15-.12,1.02-.7,1.02-.89v-.47h-3.81c-1.77-.02-2.9-.79-2.92-1.68,0-.08.04-3.98,0-4.02h0Z"/>
    <path class="cls-30" d="m270.57,80.75h5.15c.6,0,1.19-.13,1.65-.34.78-.36,1.15-.84,1.15-1.47v-1.31c0-.52-.43-1-1.28-1.32-.45-.17-1-.26-1.53-.26h-2.17c-.72,0-1.07-.22-1.15-.7-.02-.06-.02-.1-.02-.16v-.82s0-.09.02-.15c.09-.37.28-.47.91-.53.05,0,.12-.01.17-.01h5.12v-1.2h-5.03c-.72,0-1.1.05-1.45.15-1.07.33-1.53.86-1.53,1.78v1.05c0,.8.91,1.49,2.45,1.65.17.01.34.02.52.02h1.86c.07,0,.14,0,.19.01.57.05.81.15.98.36.1.1.14.21.14.32v1.05c0,.13-.09.29-.26.43-.16.14-.41.23-.76.25-.07,0-.12.01-.19.01h-4.95v1.2h0Z"/>
    <path class="cls-30" d="m289.72,78.66c0,1.23.91,1.92,2.76,2.06.17.01.34.02.52.02h4.67v-1.2h-4.71c-1.05,0-1.45-.26-1.45-.9v-6.18h-1.79v6.19h0Z"/>
    <path class="cls-30" d="m279.68,78.73v-4.26c0-1.08.76-1.74,2.26-1.95.16-.02.33-.03.48-.03h3.4c.17,0,.33.01.5.03,1.5.21,2.26.86,2.26,1.95v4.26c0,.88-.32,1.35-1.07,1.65l1.77,1.59h-2.08l-1.43-1.29-1.44.09h-1.92c-.33,0-.67-.05-1.05-.15-1.14-.31-1.69-.91-1.69-1.9h0Zm1.93-.1c0,.06.02.12.03.18.1.5.57.77,1.28.77h1.63l-1.5-1.35h2.08l1.3,1.18c.24-.13.4-.32.45-.58.02-.06.02-.12.02-.17v-4.09s0-.1-.02-.16c-.1-.46-.57-.73-1.26-.73h-2.71c-.79,0-1.31.35-1.31.89v4.05h0Z"/>
    <path class="cls-29" d="m299.24,70.49c-1.1-.03-1.94.07-2.66.38-.2.09-.53.09-.56.34.11.12.13.29.22.44.17.28.46.65.72.85.28.21.57.44.88.63.54.33,1.14.52,1.66.85.31.19.61.44.91.66.15.11.25.28.44.34v-.03c-.1-.13-.13-.3-.22-.44-.14-.14-.27-.27-.41-.41-.4-.53-.9-.99-1.44-1.38-.43-.31-1.39-.72-1.57-1.22-.01-.01-.02-.02-.03-.03.3-.03.66-.14.94-.22.47-.13.89-.09,1.38-.22.22-.06.44-.13.66-.19v-.13c-.25-.25-.42-.59-.69-.81-.7-.6-1.47-1.19-2.26-1.69-.44-.28-.98-.46-1.44-.69-.16-.08-.43-.12-.53-.25-.24-.31-.38-.7-.56-1.07-.39-.76-.78-1.58-1.13-2.38-.24-.54-.39-1.08-.69-1.57-1.42-2.34-2.95-3.75-5.33-5.14-.5-.3-1.11-.41-1.75-.56-.34-.02-.69-.04-1.03-.06-.21-.09-.43-.35-.63-.47-.79-.5-2.8-1.58-3.38-.16-.37.9.55,1.77.88,2.22.23.32.52.68.69,1.03.11.24.13.47.22.72.23.61.43,1.28.72,1.85.15.29.31.59.5.85.12.16.31.23.34.47-.19.27-.2.69-.31,1.03-.49,1.54-.31,3.46.41,4.61.22.35.73,1.1,1.44.81.62-.25.48-1.03.66-1.72.04-.16.02-.27.09-.38v.03c.19.38.38.75.56,1.13.42.67,1.16,1.37,1.79,1.85.33.25.58.67,1,.81v-.03h-.03c-.08-.13-.21-.18-.31-.28-.25-.24-.52-.54-.72-.81-.57-.78-1.08-1.62-1.54-2.51-.22-.42-.41-.89-.6-1.32-.07-.17-.07-.42-.22-.5-.2.31-.5.57-.66.94-.25.59-.28,1.32-.38,2.07-.05.02-.03,0-.06.03-.44-.11-.59-.55-.75-.94-.41-.97-.49-2.54-.13-3.67.09-.29.52-1.2.34-1.47-.08-.27-.35-.42-.5-.63-.19-.25-.37-.59-.5-.88-.34-.76-.49-1.61-.85-2.38-.17-.37-.45-.74-.69-1.07-.26-.36-.55-.63-.75-1.07-.07-.16-.17-.4-.06-.56.03-.11.08-.15.19-.19.18-.14.69.05.88.13.5.21.92.41,1.35.69.2.14.41.4.66.47h.28c.44.1.94.03,1.35.16.73.22,1.38.57,1.97.94,1.81,1.14,3.28,2.76,4.29,4.7.16.31.23.61.38.94.29.67.65,1.35.94,2.01.29.65.57,1.31.97,1.85.21.28,1.04.44,1.41.6.26.11.69.23.94.38.47.29.93.63,1.38.94.22.16.91.5.94.78h0Z"/>
    <path class="cls-14" d="m285.23,58.55c-.23,0-.39.03-.56.06v.03h.03c.11.23.3.37.44.56.1.22.21.44.31.66.01-.01.02-.02.03-.03.19-.14.28-.36.28-.69-.08-.08-.09-.18-.16-.28-.09-.13-.26-.2-.38-.31h0Z"/>
    <path class="cls-12" d="m298.51,79.52c0,.79.62,1.32,1.32,1.32s1.32-.53,1.32-1.32-.62-1.32-1.32-1.32-1.32.53-1.32,1.32h0Zm2.35,0c0,.6-.46,1.05-1.03,1.05s-1.03-.45-1.03-1.05.45-1.05,1.03-1.05,1.03.45,1.03,1.05h0Zm-.67.75h.3l-.43-.66c.23-.02.41-.14.41-.41,0-.31-.19-.43-.57-.43h-.59v1.51h.25v-.65h.24l.39.65h0Zm-.63-.86v-.43h.29c.15,0,.33.03.33.2,0,.21-.17.23-.36.23h-.27Z"/>
  </g>
</svg>