<?xml version="1.0" encoding="UTF-8"?>
<svg id="Layer_1" data-name="Layer 1" xmlns="http://www.w3.org/2000/svg" xmlns:xlink="http://www.w3.org/1999/xlink" viewBox="0 0 344.3 236.82">
  <defs>
    <style>
      .cls-1 {
        fill: url(#linear-gradient);
      }

      .cls-2 {
        fill: #010101;
        stroke: #010101;
        stroke-width: 2.21px;
      }

      .cls-3 {
        stroke-width: .12px;
      }

      .cls-3, .cls-4 {
        fill: #fff;
      }

      .cls-3, .cls-4, .cls-5, .cls-6 {
        stroke: #fff;
      }

      .cls-7 {
        fill: #231f20;
      }

      .cls-8 {
        fill: #092e21;
      }

      .cls-9 {
        fill: #356892;
      }

      .cls-10 {
        fill: #fbc87c;
        stroke-width: 1px;
      }

      .cls-10, .cls-11, .cls-12, .cls-13, .cls-14 {
        stroke: #231f20;
        stroke-miterlimit: 10;
      }

      .cls-11 {
        stroke-width: 1px;
      }

      .cls-11, .cls-14 {
        fill: #acd9f4;
      }

      .cls-12 {
        fill: #27aae1;
        stroke-width: 1px;
      }

      .cls-13 {
        fill: #75c69e;
        stroke-width: 1px;
      }

      .cls-14 {
        stroke-width: 1px;
      }

      .cls-15 {
        fill: url(#linear-gradient-3);
      }

      .cls-16 {
        fill: url(#linear-gradient-4);
      }

      .cls-17 {
        fill: url(#linear-gradient-2);
      }

      .cls-4 {
        stroke-width: .25px;
      }

      .cls-5 {
        stroke-linejoin: round;
      }

      .cls-5, .cls-6 {
        fill: none;
        stroke-linecap: round;
        stroke-width: .74px;
      }

      .cls-6 {
        stroke-linejoin: bevel;
      }
    </style>
    <linearGradient id="linear-gradient" x1="1284.2" y1="718.14" x2="1309.24" y2="696.59" gradientTransform="translate(-492.43 466.85) scale(.56 -.57)" gradientUnits="userSpaceOnUse">
      <stop offset="0" stop-color="#5c9fd3"/>
      <stop offset="1" stop-color="#316a99"/>
    </linearGradient>
    <linearGradient id="linear-gradient-2" x1="1318.93" y1="683.54" x2="1309.98" y2="696.2" gradientTransform="translate(-492.43 466.85) scale(.56 -.57)" gradientUnits="userSpaceOnUse">
      <stop offset="0" stop-color="#ffd53d"/>
      <stop offset="1" stop-color="#fee875"/>
    </linearGradient>
    <linearGradient id="linear-gradient-3" x1="968.83" y1="718.02" x2="993.88" y2="696.47" xlink:href="#linear-gradient"/>
    <linearGradient id="linear-gradient-4" x1="1003.56" y1="683.42" x2="994.62" y2="696.08" xlink:href="#linear-gradient-2"/>
  </defs>
  <rect class="cls-13" y="195.66" width="343.55" height="40.66" rx="8.41" ry="8.41"/>
  <g>
    <path class="cls-7" d="m139.48,212.45h1.75v3.93h3.35v-3.93h1.75v9.81h-1.75v-4.34h-3.35v4.34h-1.75v-9.81Z"/>
    <path class="cls-7" d="m148.47,220.28c0-1.65,1.45-2.47,5.09-2.73-.06-.82-.55-1.44-1.75-1.44-.83,0-1.65.36-2.41.78l-.64-1.15c.89-.53,2.1-1.03,3.37-1.03,2.04,0,3.17,1.14,3.17,3.19v4.36h-1.43l-.13-.91h-.05c-.77.6-1.76,1.09-2.75,1.09-1.44,0-2.47-.88-2.47-2.16Zm5.09-.1v-1.55c-2.65.17-3.41.72-3.41,1.51,0,.65.57.93,1.3.93s1.43-.35,2.11-.89Z"/>
    <path class="cls-7" d="m158.36,214.89h1.43l.15,1.68h.04c.75-1.2,1.87-1.86,3.13-1.86.59,0,1,.09,1.43.3l-.37,1.47c-.49-.15-.77-.23-1.33-.23-1.01,0-2,.52-2.75,1.95v4.06h-1.74v-7.37Z"/>
    <path class="cls-7" d="m166.21,218.58c0-2.4,1.57-3.87,3.24-3.87.84,0,1.46.32,2.03.86h.04l-.08-1.24v-2.67h1.74v10.59h-1.42l-.13-.86h-.05c-.57.58-1.39,1.04-2.22,1.04-1.9,0-3.14-1.42-3.14-3.85Zm5.23,1.54v-3.31c-.53-.49-1.04-.66-1.57-.66-1.03,0-1.88.88-1.88,2.42s.67,2.44,1.79,2.44c.61,0,1.15-.27,1.67-.88Z"/>
    <path class="cls-7" d="m174.5,214.89h1.69l.66,3.83c.11.71.2,1.39.29,2.11h.05c.08-.72.22-1.42.38-2.11l.68-3.11h1.42l.67,3.11c.15.71.32,1.39.41,2.11h.06c.11-.72.16-1.4.27-2.11l.64-3.83h1.6l-1.35,7.37h-2.1l-.62-2.94c-.11-.58-.21-1.29-.32-2.18h-.06c-.09.78-.18,1.46-.3,2.18l-.6,2.94h-2.08l-1.4-7.37Z"/>
    <path class="cls-7" d="m184.47,220.28c0-1.65,1.45-2.47,5.09-2.73-.06-.82-.55-1.44-1.75-1.44-.83,0-1.65.36-2.41.78l-.64-1.15c.89-.53,2.1-1.03,3.37-1.03,2.04,0,3.17,1.14,3.17,3.19v4.36h-1.43l-.13-.91h-.05c-.77.6-1.76,1.09-2.75,1.09-1.44,0-2.47-.88-2.47-2.16Zm5.09-.1v-1.55c-2.65.17-3.41.72-3.41,1.51,0,.65.57.93,1.3.93s1.43-.35,2.11-.89Z"/>
    <path class="cls-7" d="m194.36,214.89h1.43l.15,1.68h.04c.75-1.2,1.87-1.86,3.13-1.86.59,0,1,.09,1.43.3l-.37,1.47c-.49-.15-.77-.23-1.33-.23-1.01,0-2,.52-2.75,1.95v4.06h-1.74v-7.37Z"/>
    <path class="cls-7" d="m202.33,218.56c0-2.4,1.83-3.85,3.8-3.85,2.2,0,3.42,1.46,3.42,3.5,0,.35-.05.68-.08.87h-5.9v-1.22h4.78l-.33.38c0-1.46-.68-2.19-1.84-2.19-1.22,0-2.16.88-2.16,2.52s1.03,2.53,2.56,2.53c.77,0,1.41-.23,2.07-.6l.59,1.07c-.79.51-1.8.87-2.89.87-2.26,0-4.03-1.42-4.03-3.87Z"/>
  </g>
  <rect class="cls-10" y="148.26" width="343.55" height="40.66" rx="8.41" ry="8.41"/>
  <g>
    <path class="cls-7" d="m100.42,169.91c0-3.22,1.58-5.04,3.86-5.04s3.86,1.81,3.86,5.04-1.58,5.13-3.86,5.13-3.86-1.84-3.86-5.13Zm5.92,0c0-2.25-.81-3.52-2.06-3.52s-2.06,1.27-2.06,3.52.81,3.61,2.06,3.61,2.06-1.3,2.06-3.61Z"/>
    <path class="cls-7" d="m110.01,167.49h1.42l.13.84h.05c.64-.6,1.53-1.02,2.37-1.02,1.91,0,3,1.47,3,3.75,0,2.51-1.56,3.97-3.27,3.97-.66,0-1.41-.32-2-.87h-.04l.08,1.29v2.32h-1.73v-10.28Zm5.19,3.58c0-1.47-.52-2.33-1.71-2.33-.56,0-1.15.26-1.75.88v3.31c.54.49,1.16.66,1.6.66,1.05,0,1.85-.86,1.85-2.53Z"/>
    <path class="cls-7" d="m118.7,171.16c0-2.4,1.83-3.85,3.8-3.85,2.2,0,3.42,1.46,3.42,3.5,0,.35-.05.68-.08.87h-5.9v-1.22h4.78l-.33.38c0-1.46-.68-2.19-1.84-2.19-1.22,0-2.16.88-2.16,2.52s1.03,2.53,2.56,2.53c.77,0,1.41-.23,2.07-.6l.59,1.07c-.79.51-1.8.87-2.89.87-2.26,0-4.03-1.42-4.03-3.87Z"/>
    <path class="cls-7" d="m128.72,167.49h1.43l.15,1.68h.04c.75-1.2,1.87-1.86,3.13-1.86.6,0,1,.09,1.43.3l-.37,1.47c-.49-.15-.77-.23-1.33-.23-1.01,0-2,.52-2.75,1.95v4.06h-1.73v-7.37Z"/>
    <path class="cls-7" d="m136.83,172.88c0-1.65,1.45-2.47,5.09-2.73-.06-.82-.55-1.44-1.75-1.44-.83,0-1.65.36-2.41.78l-.64-1.15c.89-.53,2.1-1.03,3.37-1.03,2.04,0,3.17,1.14,3.17,3.19v4.36h-1.43l-.13-.91h-.05c-.77.6-1.76,1.09-2.75,1.09-1.44,0-2.47-.88-2.47-2.16Zm5.09-.1v-1.55c-2.65.17-3.41.72-3.41,1.51,0,.65.57.93,1.3.93s1.43-.35,2.11-.89Z"/>
    <path class="cls-7" d="m147.62,171.89v-3.03h-1.97v-1.29l2.04-.08.23-2.31h1.44v2.31h3.35v1.37h-3.35v3.02c0,1.22.46,1.77,1.7,1.77.61,0,1.12-.12,1.6-.3l.34,1.26c-.66.22-1.4.42-2.36.42-2.25,0-3.02-1.26-3.02-3.14Z"/>
    <path class="cls-7" d="m158.22,168.86h-3.18v-1.37h4.92v7.37h-1.73v-5.99Zm-.48-3.87c0-.69.52-1.17,1.23-1.17s1.23.48,1.23,1.17-.52,1.16-1.23,1.16-1.23-.46-1.23-1.16Z"/>
    <path class="cls-7" d="m164.01,167.49h1.42l.13,1.11h.06c.71-.71,1.53-1.29,2.66-1.29,1.7,0,2.47,1.09,2.47,2.98v4.56h-1.74v-4.34c0-1.18-.38-1.72-1.37-1.72-.73,0-1.22.35-1.89,1.04v5.02h-1.74v-7.37Z"/>
    <path class="cls-7" d="m172.7,176.15c0-.6.41-1.14,1.18-1.55v-.06c-.4-.23-.75-.61-.75-1.23,0-.48.34-1.01.88-1.38v-.06c-.52-.37-.94-1.03-.94-1.9,0-1.69,1.41-2.65,3.03-2.65.43,0,.82.06,1.15.18h3.02v1.32h-1.69c.25.28.47.74.47,1.22,0,1.64-1.29,2.5-2.95,2.5-.34,0-.74-.07-1.12-.21-.29.19-.45.4-.45.69,0,.48.47.7,1.39.7h1.5c1.91,0,2.9.51,2.9,1.8,0,1.46-1.65,2.62-4.25,2.62-2.03,0-3.37-.65-3.37-1.96Zm5.95-.36c0-.58-.51-.73-1.48-.73h-1.18c-.48,0-.83-.03-1.12-.11-.53.3-.73.62-.73.97,0,.66.78,1.04,2.13,1.04,1.44,0,2.38-.55,2.38-1.17Zm-1.15-5.83c0-.9-.63-1.46-1.4-1.46s-1.39.56-1.39,1.46.63,1.48,1.39,1.48,1.4-.55,1.4-1.48Z"/>
    <path class="cls-7" d="m190.65,173.6l1.01-1.2c.74.67,1.71,1.12,2.74,1.12,1.14,0,1.75-.5,1.75-1.19,0-.87-.67-1.11-1.63-1.51l-1.35-.59c-1.03-.4-2.09-1.16-2.09-2.6,0-1.56,1.41-2.76,3.41-2.76,1.2,0,2.34.47,3.14,1.25l-.89,1.11c-.67-.53-1.35-.84-2.33-.84-.93,0-1.56.42-1.56,1.14,0,.76.78,1.04,1.67,1.38l1.29.56c1.25.48,2.13,1.23,2.13,2.64,0,1.59-1.34,2.92-3.63,2.92-1.38,0-2.68-.53-3.65-1.43Z"/>
    <path class="cls-7" d="m199.78,177.73l.33-1.34c.2.06.41.1.62.1.94,0,1.48-.52,1.77-1.25l.18-.46-3.3-7.28h1.73l1.5,3.6c.27.67.55,1.43.82,2.18h.06c.23-.72.5-1.48.73-2.18l1.33-3.6h1.65l-3.08,7.7c-.63,1.65-1.52,2.68-3.29,2.68-.39,0-.76-.06-1.05-.15Z"/>
    <path class="cls-7" d="m208.7,173.9l.76-1.11c.88.58,1.88.94,3.08.94,1.02,0,1.5-.39,1.5-.88s-.32-.75-2.04-1.11c-1.97-.41-2.84-1.11-2.84-2.23,0-1.28,1.17-2.2,3.23-2.2,1.22,0,2.34.48,3.08.97l-.8,1.06c-.71-.46-1.56-.74-2.44-.74-.96,0-1.35.37-1.35.82,0,.52.54.7,1.92,1,2.35.52,2.97,1.15,2.97,2.32,0,1.27-1.22,2.29-3.46,2.29-1.38,0-2.7-.52-3.61-1.14Z"/>
    <path class="cls-7" d="m219.62,171.89v-3.03h-1.97v-1.29l2.04-.08.23-2.31h1.44v2.31h3.35v1.37h-3.35v3.02c0,1.22.46,1.77,1.7,1.77.61,0,1.12-.12,1.6-.3l.34,1.26c-.66.22-1.4.42-2.36.42-2.25,0-3.02-1.26-3.02-3.14Z"/>
    <path class="cls-7" d="m226.7,171.16c0-2.4,1.83-3.85,3.8-3.85,2.2,0,3.42,1.46,3.42,3.5,0,.35-.05.68-.08.87h-5.9v-1.22h4.78l-.33.38c0-1.46-.68-2.19-1.84-2.19-1.22,0-2.16.88-2.16,2.52s1.03,2.53,2.56,2.53c.77,0,1.41-.23,2.07-.6l.59,1.07c-.79.51-1.8.87-2.89.87-2.26,0-4.03-1.42-4.03-3.87Z"/>
    <path class="cls-7" d="m235.47,167.49h1.33l.13.94h.04c.33-.64.79-1.12,1.64-1.12.68,0,1.14.42,1.34,1.24.34-.73.83-1.24,1.68-1.24,1.04,0,1.64.86,1.64,2.33v5.22h-1.67v-5.1c0-.65-.17-.97-.59-.97s-.63.3-.92.92v5.15h-1.44v-5.1c0-.65-.17-.97-.58-.97-.39,0-.65.3-.92.92v5.15h-1.67v-7.37Z"/>
  </g>
  <rect class="cls-12" y="100.86" width="343.55" height="40.66" rx="8.41" ry="8.41"/>
  <g>
    <path class="cls-7" d="m114.45,117.65h2.57c2.89,0,4.63,1.62,4.63,4.86s-1.74,4.95-4.54,4.95h-2.66v-9.81Zm2.46,8.39c1.87,0,2.94-1.12,2.94-3.53s-1.07-3.44-2.94-3.44h-.72v6.98h.72Z"/>
    <path class="cls-7" d="m123.08,123.79c0-2.46,1.76-3.87,3.7-3.87s3.7,1.41,3.7,3.87-1.76,3.85-3.7,3.85-3.7-1.41-3.7-3.85Zm5.62,0c0-1.48-.72-2.46-1.92-2.46s-1.92.98-1.92,2.46.72,2.44,1.92,2.44,1.92-.97,1.92-2.44Z"/>
    <path class="cls-7" d="m132.38,123.79c0-2.46,1.94-3.87,4.19-3.87,1.18,0,2.11.45,2.72,1.04l-.82,1.09c-.58-.46-1.16-.71-1.82-.71-1.48,0-2.49.98-2.49,2.46s1,2.44,2.44,2.44c.84,0,1.53-.37,2.1-.81l.73,1.11c-.85.74-1.93,1.12-2.98,1.12-2.31,0-4.07-1.41-4.07-3.85Z"/>
    <path class="cls-7" d="m141.62,116.87h1.74v6.63h.06l3.32-3.4h1.93l-5.3,5.44v1.92h-1.74v-10.59Zm2.95,6.97l1.01-1.1,3.38,4.71h-1.9l-2.5-3.62Z"/>
    <path class="cls-7" d="m150.2,123.77c0-2.4,1.83-3.85,3.8-3.85,2.2,0,3.42,1.46,3.42,3.5,0,.35-.05.68-.08.87h-5.9v-1.22h4.78l-.33.38c0-1.46-.68-2.19-1.84-2.19-1.22,0-2.16.88-2.16,2.52s1.03,2.53,2.56,2.53c.77,0,1.41-.23,2.07-.6l.59,1.07c-.79.51-1.8.87-2.89.87-2.26,0-4.03-1.42-4.03-3.87Z"/>
    <path class="cls-7" d="m160.22,120.09h1.43l.15,1.68h.04c.75-1.2,1.87-1.86,3.13-1.86.59,0,1,.09,1.43.3l-.37,1.47c-.49-.15-.77-.23-1.33-.23-1.01,0-2,.52-2.75,1.95v4.06h-1.74v-7.37Z"/>
    <path class="cls-7" d="m177.2,123.77c0-2.4,1.83-3.85,3.8-3.85,2.2,0,3.42,1.46,3.42,3.5,0,.35-.05.68-.08.87h-5.9v-1.22h4.78l-.33.38c0-1.46-.68-2.19-1.84-2.19-1.22,0-2.16.88-2.16,2.52s1.03,2.53,2.56,2.53c.77,0,1.41-.23,2.07-.6l.59,1.07c-.79.51-1.8.87-2.89.87-2.26,0-4.03-1.42-4.03-3.87Z"/>
    <path class="cls-7" d="m186.51,120.09h1.42l.13,1.11h.06c.71-.71,1.53-1.29,2.66-1.29,1.7,0,2.47,1.09,2.47,2.98v4.56h-1.74v-4.34c0-1.18-.38-1.72-1.37-1.72-.73,0-1.22.35-1.89,1.04v5.02h-1.74v-7.37Z"/>
    <path class="cls-7" d="m195.2,128.76c0-.6.41-1.14,1.18-1.55v-.06c-.4-.23-.75-.61-.75-1.23,0-.48.34-1.01.88-1.38v-.06c-.52-.37-.94-1.03-.94-1.9,0-1.69,1.41-2.65,3.03-2.65.43,0,.82.06,1.15.18h3.02v1.32h-1.69c.25.28.47.74.47,1.22,0,1.64-1.29,2.5-2.95,2.5-.34,0-.74-.07-1.12-.21-.29.19-.45.4-.45.69,0,.48.47.7,1.39.7h1.5c1.91,0,2.9.51,2.9,1.8,0,1.46-1.65,2.62-4.25,2.62-2.03,0-3.37-.65-3.37-1.96Zm5.95-.36c0-.58-.51-.73-1.48-.73h-1.18c-.48,0-.83-.03-1.12-.11-.53.3-.73.62-.73.97,0,.66.78,1.04,2.13,1.04,1.44,0,2.38-.55,2.38-1.17Zm-1.15-5.83c0-.9-.63-1.46-1.4-1.46s-1.39.56-1.39,1.46.63,1.48,1.39,1.48,1.4-.55,1.4-1.48Z"/>
    <path class="cls-7" d="m207.72,121.47h-3.18v-1.37h4.92v7.37h-1.73v-5.99Zm-.48-3.87c0-.69.52-1.17,1.23-1.17s1.23.48,1.23,1.17-.52,1.16-1.23,1.16-1.23-.46-1.23-1.16Z"/>
    <path class="cls-7" d="m213.51,120.09h1.42l.13,1.11h.06c.71-.71,1.53-1.29,2.66-1.29,1.7,0,2.47,1.09,2.47,2.98v4.56h-1.74v-4.34c0-1.18-.38-1.72-1.37-1.72-.73,0-1.22.35-1.89,1.04v5.02h-1.74v-7.37Z"/>
    <path class="cls-7" d="m222.2,123.77c0-2.4,1.83-3.85,3.8-3.85,2.2,0,3.42,1.46,3.42,3.5,0,.35-.05.68-.08.87h-5.9v-1.22h4.78l-.33.38c0-1.46-.68-2.19-1.84-2.19-1.22,0-2.16.88-2.16,2.52s1.03,2.53,2.56,2.53c.77,0,1.41-.23,2.07-.6l.59,1.07c-.79.51-1.8.87-2.89.87-2.26,0-4.03-1.42-4.03-3.87Z"/>
  </g>
  <rect class="cls-14" x="177.12" y="1.04" width="166.49" height="90.72" rx="8.43" ry="8.43"/>
  <g>
    <path class="cls-7" d="m189,16.17h2.57c2.89,0,4.63,1.62,4.63,4.86s-1.74,4.95-4.54,4.95h-2.66v-9.81Zm2.46,8.39c1.87,0,2.94-1.12,2.94-3.53s-1.07-3.44-2.94-3.44h-.72v6.98h.72Z"/>
    <path class="cls-7" d="m197.55,28.57l.53-1.26c.56.26,1.09.38,1.59.38,1.25,0,1.6-.61,1.6-1.76v-5.94h-3.18v-1.37h4.92v7.23c0,1.8-.73,3.23-3.26,3.23-.84,0-1.58-.21-2.19-.5Zm3.24-12.46c0-.69.52-1.17,1.23-1.17s1.23.48,1.23,1.17-.52,1.16-1.23,1.16-1.23-.46-1.23-1.16Z"/>
    <path class="cls-7" d="m206.88,24c0-1.65,1.45-2.47,5.09-2.73-.06-.82-.55-1.44-1.75-1.44-.83,0-1.65.36-2.41.78l-.64-1.15c.89-.53,2.1-1.03,3.37-1.03,2.04,0,3.17,1.14,3.17,3.19v4.36h-1.43l-.13-.91h-.05c-.77.6-1.76,1.09-2.75,1.09-1.44,0-2.47-.88-2.47-2.16Zm5.09-.1v-1.55c-2.65.17-3.41.72-3.41,1.51,0,.65.57.93,1.3.93s1.43-.35,2.11-.89Z"/>
    <path class="cls-7" d="m216.06,18.61h1.42l.13,1.11h.06c.7-.71,1.53-1.29,2.66-1.29,1.7,0,2.47,1.09,2.47,2.98v4.56h-1.74v-4.34c0-1.18-.38-1.72-1.37-1.72-.73,0-1.22.35-1.89,1.04v5.02h-1.73v-7.37Z"/>
    <path class="cls-7" d="m224.75,27.27c0-.6.41-1.14,1.18-1.55v-.06c-.4-.23-.75-.61-.75-1.23,0-.48.34-1.01.88-1.38v-.06c-.52-.37-.95-1.03-.95-1.9,0-1.69,1.41-2.65,3.03-2.65.43,0,.81.06,1.15.18h3.02v1.32h-1.69c.25.28.47.74.47,1.22,0,1.64-1.29,2.5-2.95,2.5-.34,0-.74-.07-1.13-.21-.29.19-.45.4-.45.69,0,.48.47.7,1.39.7h1.5c1.91,0,2.9.51,2.9,1.8,0,1.46-1.65,2.62-4.25,2.62-2.03,0-3.37-.65-3.37-1.96Zm5.95-.36c0-.58-.51-.73-1.48-.73h-1.18c-.48,0-.83-.03-1.12-.11-.53.3-.73.62-.73.97,0,.66.78,1.04,2.13,1.04,1.44,0,2.38-.55,2.38-1.17Zm-1.15-5.83c0-.9-.63-1.46-1.4-1.46s-1.39.56-1.39,1.46.63,1.48,1.39,1.48,1.4-.55,1.4-1.48Z"/>
    <path class="cls-7" d="m233.63,22.3c0-2.46,1.76-3.87,3.7-3.87s3.7,1.41,3.7,3.87-1.76,3.85-3.7,3.85-3.7-1.41-3.7-3.85Zm5.62,0c0-1.48-.72-2.46-1.92-2.46s-1.92.98-1.92,2.46.72,2.44,1.92,2.44,1.92-.97,1.92-2.44Z"/>
    <path class="cls-7" d="m251.72,21.1c0-3.2,1.95-5.11,4.54-5.11,1.21,0,2.19.58,2.81,1.22l-.97,1.09c-.49-.48-1.07-.79-1.84-.79-1.63,0-2.75,1.34-2.75,3.54s1.12,3.59,2.79,3.59c.8,0,1.44-.37,1.98-.97l.97,1.06c-.78.92-1.82,1.43-3.13,1.43-2.43,0-4.41-1.8-4.41-5.06Z"/>
    <path class="cls-7" d="m260.63,22.3c0-2.46,1.76-3.87,3.7-3.87s3.7,1.41,3.7,3.87-1.76,3.85-3.7,3.85-3.7-1.41-3.7-3.85Zm5.62,0c0-1.48-.72-2.46-1.92-2.46s-1.92.98-1.92,2.46.72,2.44,1.92,2.44,1.92-.97,1.92-2.44Z"/>
    <path class="cls-7" d="m270.06,18.61h1.42l.13,1.11h.06c.7-.71,1.53-1.29,2.66-1.29,1.7,0,2.47,1.09,2.47,2.98v4.56h-1.74v-4.34c0-1.18-.38-1.72-1.37-1.72-.73,0-1.22.35-1.89,1.04v5.02h-1.73v-7.37Z"/>
    <path class="cls-7" d="m280.67,23.01v-3.03h-1.97v-1.29l2.04-.08.23-2.31h1.44v2.31h3.35v1.37h-3.35v3.02c0,1.22.46,1.77,1.7,1.77.62,0,1.12-.12,1.6-.3l.34,1.26c-.66.22-1.4.42-2.36.42-2.25,0-3.02-1.26-3.02-3.14Z"/>
    <path class="cls-7" d="m287.88,24c0-1.65,1.45-2.47,5.09-2.73-.06-.82-.55-1.44-1.75-1.44-.83,0-1.65.36-2.41.78l-.64-1.15c.89-.53,2.1-1.03,3.37-1.03,2.04,0,3.17,1.14,3.17,3.19v4.36h-1.43l-.13-.91h-.05c-.77.6-1.76,1.09-2.75,1.09-1.44,0-2.47-.88-2.47-2.16Zm5.09-.1v-1.55c-2.65.17-3.41.72-3.41,1.51,0,.65.57.93,1.3.93s1.43-.35,2.11-.89Z"/>
    <path class="cls-7" d="m300.27,19.98h-3.18v-1.37h4.92v7.37h-1.73v-5.99Zm-.48-3.87c0-.69.52-1.17,1.23-1.17s1.23.48,1.23,1.17-.52,1.16-1.23,1.16-1.23-.46-1.23-1.16Z"/>
    <path class="cls-7" d="m306.06,18.61h1.42l.13,1.11h.06c.7-.71,1.53-1.29,2.66-1.29,1.7,0,2.47,1.09,2.47,2.98v4.56h-1.74v-4.34c0-1.18-.38-1.72-1.37-1.72-.73,0-1.22.35-1.89,1.04v5.02h-1.73v-7.37Z"/>
    <path class="cls-7" d="m314.75,22.28c0-2.4,1.83-3.85,3.8-3.85,2.2,0,3.42,1.46,3.42,3.5,0,.35-.05.68-.08.87h-5.9v-1.22h4.78l-.33.38c0-1.46-.68-2.19-1.84-2.19-1.22,0-2.16.88-2.16,2.52s1.03,2.53,2.56,2.53c.77,0,1.41-.23,2.07-.6l.59,1.07c-.79.51-1.8.87-2.89.87-2.26,0-4.03-1.42-4.03-3.87Z"/>
    <path class="cls-7" d="m324.78,18.61h1.43l.15,1.68h.04c.75-1.2,1.87-1.86,3.13-1.86.6,0,1,.09,1.44.3l-.37,1.47c-.49-.15-.77-.23-1.33-.23-1.01,0-2,.52-2.75,1.95v4.06h-1.74v-7.37Z"/>
  </g>
  <g>
    <path id="path1948" class="cls-1" d="m243.23,58.23c-1.05,0-2.06.09-2.94.25-2.61.46-3.08,1.42-3.08,3.2v2.35h6.16v.78h-8.47c-1.79,0-3.36,1.08-3.85,3.12-.57,2.35-.59,3.81,0,6.26.44,1.82,1.48,3.12,3.27,3.12h2.12v-2.81c0-2.03,1.76-3.83,3.85-3.83h6.15c1.71,0,3.08-1.41,3.08-3.13v-5.87c0-1.67-1.41-2.92-3.08-3.2-1.06-.18-2.16-.26-3.21-.25Zm-3.33,1.89c.64,0,1.16.53,1.16,1.18,0,.65-.52,1.17-1.16,1.17-.64,0-1.16-.52-1.16-1.17s.52-1.18,1.16-1.18Z"/>
    <path id="path1950" class="cls-17" d="m250.28,64.81v2.74c0,2.12-1.8,3.91-3.85,3.91h-6.15c-1.69,0-3.08,1.44-3.08,3.13v5.87c0,1.67,1.45,2.65,3.08,3.13,1.95.57,3.82.68,6.15,0,1.55-.45,3.08-1.35,3.08-3.13v-2.35h-6.15v-.78h9.23c1.79,0,2.46-1.25,3.08-3.12.64-1.93.62-3.79,0-6.26-.44-1.78-1.29-3.12-3.08-3.12h-2.31Zm-3.46,14.86c.64,0,1.16.52,1.16,1.17s-.52,1.18-1.16,1.18-1.16-.53-1.16-1.18.52-1.17,1.16-1.17Z"/>
  </g>
  <g id="Layer_3">
    <path class="cls-2" d="m281.5,77.65c.17-1.4.12-1.6,1.16-1.38l.26.02c.8.04,1.85-.13,2.46-.41,1.32-.61,2.11-1.64.8-1.37-2.98.61-3.18-.39-3.18-.39,3.14-4.66,4.46-10.58,3.32-12.03-3.09-3.95-8.45-2.08-8.54-2.03h-.03c-.59-.12-1.25-.19-1.99-.2-1.35-.02-2.37.35-3.14.94,0,0-9.55-3.94-9.11,4.95.09,1.89,2.71,14.3,5.83,10.55,1.14-1.37,2.24-2.53,2.24-2.53.55.36,1.2.55,1.89.48l.05-.05c-.02.17,0,.34.02.53-.8.9-.57,1.06-2.17,1.39-1.62.33-.67.93-.05,1.09.76.19,2.5.46,3.68-1.2l-.05.19c.32.25.29,1.81.34,2.93.04,1.11.12,2.15.35,2.77.23.61.5,2.19,2.61,1.74,1.76-.38,3.11-.92,3.24-5.98"/>
    <path class="cls-9" d="m286.19,74.51c-2.98.61-3.18-.39-3.18-.39,3.14-4.66,4.46-10.58,3.32-12.03-3.09-3.95-8.45-2.08-8.54-2.03h-.03c-.59-.12-1.25-.19-1.99-.2-1.35-.02-2.37.35-3.14.94,0,0-9.55-3.93-9.11,4.95.09,1.89,2.71,14.3,5.83,10.55,1.14-1.37,2.24-2.53,2.24-2.53.55.36,1.2.55,1.89.48l.05-.05c-.02.17,0,.34.02.53-.8.9-.57,1.06-2.17,1.39-1.62.33-.67.93-.05,1.09.76.19,2.5.46,3.68-1.2l-.05.19c.31.25.54,1.64.5,2.9-.04,1.26-.06,2.12.19,2.8.25.67.5,2.19,2.61,1.74,1.76-.38,2.68-1.36,2.81-2.99.09-1.16.29-.99.31-2.03l.16-.49c.19-1.57.03-2.08,1.12-1.85l.26.02c.8.04,1.85-.13,2.46-.41,1.32-.61,2.11-1.64.8-1.37h0Z"/>
    <path class="cls-5" d="m275.15,75.42c-.08,2.93.02,5.88.31,6.6.29.72.9,2.11,3.01,1.66,1.76-.38,2.41-1.11,2.68-2.73.21-1.19.6-4.49.65-5.16"/>
    <path class="cls-5" d="m272.62,60.73s-9.56-3.91-9.11,4.98c.09,1.89,2.71,14.3,5.83,10.55,1.14-1.37,2.17-2.45,2.17-2.45"/>
    <path class="cls-5" d="m277.78,60.02c-.33.1,5.32-2.06,8.53,2.04,1.13,1.45-.18,7.37-3.32,12.03"/>
    <path class="cls-6" d="m282.99,74.08s.2,1.01,3.18.39c1.3-.27.52.76-.8,1.37-1.09.5-3.52.63-3.56-.06-.1-1.8,1.28-1.25,1.18-1.7-.09-.41-.71-.8-1.12-1.8-.36-.87-4.9-7.51,1.26-6.52.23-.05-1.61-5.86-7.37-5.95-5.76-.09-5.57,7.09-5.57,7.09"/>
    <path class="cls-5" d="m273.54,74.7c-.8.9-.57,1.06-2.17,1.39-1.62.33-.67.93-.05,1.09.76.19,2.5.46,3.68-1.2.36-.5,0-1.31-.5-1.51-.24-.1-.56-.22-.97.24h0Z"/>
    <path class="cls-5" d="m273.49,74.68c-.08-.53.17-1.16.45-1.89.41-1.1,1.35-2.2.6-5.7-.56-2.61-4.34-.54-4.35-.19,0,.35.17,1.79-.06,3.46-.31,2.18,1.39,4.03,3.34,3.84"/>
    <path class="cls-4" d="m272.59,66.85c-.02.12.22.44.53.49.31.04.57-.21.59-.33.02-.12-.22-.25-.53-.3-.31-.04-.58.02-.59.14h0Z"/>
    <path class="cls-3" d="m282.02,66.6c.02.12-.22.44-.53.49-.31.04-.58-.21-.59-.33-.02-.12.22-.25.53-.3s.58.02.59.14h0Z"/>
    <path class="cls-5" d="m283.13,65.77c.05.95-.2,1.59-.24,2.6-.05,1.46.7,3.14-.43,4.82"/>
  </g>
  <g>
    <path class="cls-8" d="m244.35,33.39h2.89v13.4c-1.48.28-2.57.39-3.76.39-3.53,0-5.37-1.6-5.37-4.66s1.95-4.87,4.98-4.87c.47,0,.83.04,1.26.15,0,0,0-4.41,0-4.41Zm0,6.74c-.34-.11-.62-.15-.98-.15-1.47,0-2.31.9-2.31,2.48s.81,2.39,2.29,2.39c.32,0,.58-.02,1-.08v-4.64Z"/>
    <path class="cls-8" d="m251.85,37.86v6.71c0,2.31-.17,3.42-.68,4.38-.47.92-1.09,1.5-2.37,2.14l-2.69-1.28c1.28-.6,1.9-1.13,2.29-1.94.41-.83.55-1.79.55-4.3v-5.71h2.89Zm-2.89-4.45h2.89v2.97h-2.89v-2.97Z"/>
    <path class="cls-8" d="m253.59,38.52c1.28-.6,2.5-.86,3.83-.86,1.48,0,2.46.39,2.89,1.17.24.43.32,1,.32,2.2v5.88c-1.3.19-2.93.32-4.13.32-2.42,0-3.51-.85-3.51-2.73,0-2.03,1.45-2.97,5-3.27v-.64c0-.53-.26-.71-1-.71-1.07,0-2.27.3-3.4.88v-2.24h0Zm4.53,4.6c-1.92.19-2.54.49-2.54,1.24,0,.56.36.83,1.15.83.43,0,.83-.04,1.39-.13v-1.94h0Z"/>
    <path class="cls-8" d="m262.05,38.31c1.71-.45,3.12-.66,4.55-.66s2.56.34,3.19,1c.6.62.79,1.3.79,2.74v5.68h-2.89v-5.56c0-1.11-.38-1.52-1.41-1.52-.39,0-.75.04-1.33.21v6.88h-2.89v-8.76Z"/>
    <path class="cls-8" d="m271.71,48.65c1.01.53,2.03.77,3.1.77,1.9,0,2.71-.77,2.71-2.61v-.06c-.56.28-1.13.39-1.88.39-2.54,0-4.15-1.67-4.15-4.32,0-3.29,2.39-5.15,6.61-5.15,1.24,0,2.39.13,3.78.41l-.99,2.09c-.77-.15-.06-.02-.64-.08v.3l.04,1.22.02,1.58c.02.39.02.79.04,1.18v.79c0,2.48-.21,3.65-.83,4.6-.9,1.41-2.46,2.1-4.68,2.1-1.13,0-2.1-.17-3.12-.56v-2.67h0Zm5.75-8.64h-.3c-.56-.02-1.22.13-1.67.41-.7.39-1.05,1.11-1.05,2.12,0,1.45.71,2.27,1.99,2.27.39,0,.71-.08,1.09-.19v-1c0-.34-.02-.71-.02-1.11l-.02-1.33-.02-.96v-.23h0Z"/>
    <path class="cls-8" d="m286.37,37.61c2.89,0,4.66,1.82,4.66,4.77s-1.84,4.92-4.77,4.92-4.68-1.82-4.68-4.75c0-3.04,1.84-4.94,4.79-4.94Zm-.06,7.37c1.11,0,1.77-.92,1.77-2.52s-.64-2.52-1.75-2.52-1.8.92-1.8,2.52c0,1.6.66,2.52,1.79,2.52Z"/>
  </g>
  <rect class="cls-11" x=".74" y="1.11" width="165.37" height="90.72" rx="8.4" ry="8.4"/>
  <g>
    <path class="cls-7" d="m11.6,16.24h2.57c2.89,0,4.63,1.62,4.63,4.86s-1.74,4.95-4.54,4.95h-2.66v-9.81Zm2.46,8.39c1.87,0,2.94-1.12,2.94-3.53s-1.07-3.44-2.94-3.44h-.72v6.98h.72Z"/>
    <path class="cls-7" d="m20.14,28.64l.53-1.26c.56.26,1.09.38,1.59.38,1.25,0,1.6-.61,1.6-1.76v-5.94h-3.18v-1.37h4.92v7.23c0,1.8-.73,3.23-3.26,3.23-.84,0-1.58-.21-2.19-.5Zm3.24-12.46c0-.69.52-1.17,1.23-1.17s1.23.48,1.23,1.17-.52,1.16-1.23,1.16-1.23-.46-1.23-1.16Z"/>
    <path class="cls-7" d="m29.48,24.07c0-1.65,1.45-2.47,5.09-2.73-.06-.82-.55-1.44-1.75-1.44-.83,0-1.65.36-2.41.78l-.64-1.15c.89-.53,2.1-1.03,3.37-1.03,2.04,0,3.17,1.14,3.17,3.19v4.36h-1.43l-.13-.91h-.05c-.77.6-1.76,1.09-2.75,1.09-1.44,0-2.47-.88-2.47-2.16Zm5.09-.1v-1.55c-2.65.17-3.41.72-3.41,1.51,0,.65.57.93,1.3.93s1.43-.35,2.11-.89Z"/>
    <path class="cls-7" d="m38.65,18.68h1.42l.13,1.11h.06c.7-.71,1.53-1.29,2.66-1.29,1.7,0,2.47,1.09,2.47,2.98v4.56h-1.73v-4.34c0-1.18-.38-1.72-1.37-1.72-.73,0-1.22.35-1.89,1.04v5.02h-1.73v-7.37Z"/>
    <path class="cls-7" d="m47.34,27.34c0-.6.41-1.14,1.18-1.55v-.06c-.4-.23-.75-.61-.75-1.23,0-.48.34-1.01.88-1.38v-.06c-.52-.37-.94-1.03-.94-1.9,0-1.69,1.41-2.65,3.03-2.65.43,0,.81.06,1.15.18h3.02v1.32h-1.69c.25.28.47.74.47,1.22,0,1.64-1.29,2.5-2.95,2.5-.34,0-.74-.07-1.12-.21-.29.19-.45.4-.45.69,0,.48.47.7,1.39.7h1.5c1.91,0,2.9.51,2.9,1.8,0,1.46-1.65,2.62-4.25,2.62-2.03,0-3.37-.65-3.37-1.96Zm5.95-.36c0-.58-.51-.73-1.48-.73h-1.18c-.48,0-.83-.03-1.12-.11-.53.3-.73.62-.73.97,0,.66.78,1.04,2.13,1.04,1.44,0,2.38-.55,2.38-1.17Zm-1.15-5.83c0-.9-.63-1.46-1.4-1.46s-1.39.56-1.39,1.46.63,1.48,1.39,1.48,1.4-.55,1.4-1.48Z"/>
    <path class="cls-7" d="m56.22,22.37c0-2.46,1.76-3.87,3.7-3.87s3.7,1.41,3.7,3.87-1.76,3.85-3.7,3.85-3.7-1.41-3.7-3.85Zm5.62,0c0-1.48-.72-2.46-1.92-2.46s-1.92.98-1.92,2.46.72,2.44,1.92,2.44,1.92-.97,1.92-2.44Z"/>
    <path class="cls-7" d="m74.31,21.17c0-3.2,1.95-5.11,4.54-5.11,1.21,0,2.19.58,2.81,1.22l-.97,1.09c-.49-.48-1.07-.79-1.84-.79-1.63,0-2.75,1.34-2.75,3.54s1.12,3.59,2.79,3.59c.8,0,1.44-.37,1.98-.97l.97,1.06c-.78.92-1.82,1.43-3.13,1.43-2.43,0-4.41-1.8-4.41-5.06Z"/>
    <path class="cls-7" d="m83.22,22.37c0-2.46,1.76-3.87,3.7-3.87s3.7,1.41,3.7,3.87-1.76,3.85-3.7,3.85-3.7-1.41-3.7-3.85Zm5.62,0c0-1.48-.72-2.46-1.92-2.46s-1.92.98-1.92,2.46.72,2.44,1.92,2.44,1.92-.97,1.92-2.44Z"/>
    <path class="cls-7" d="m92.65,18.68h1.42l.13,1.11h.06c.7-.71,1.53-1.29,2.66-1.29,1.7,0,2.47,1.09,2.47,2.98v4.56h-1.73v-4.34c0-1.18-.38-1.72-1.37-1.72-.73,0-1.22.35-1.89,1.04v5.02h-1.73v-7.37Z"/>
    <path class="cls-7" d="m103.27,23.08v-3.03h-1.97v-1.29l2.04-.08.23-2.31h1.44v2.31h3.35v1.37h-3.35v3.02c0,1.22.46,1.77,1.7,1.77.61,0,1.12-.12,1.6-.3l.34,1.26c-.66.22-1.4.42-2.36.42-2.25,0-3.02-1.26-3.02-3.14Z"/>
    <path class="cls-7" d="m110.48,24.07c0-1.65,1.45-2.47,5.09-2.73-.06-.82-.55-1.44-1.75-1.44-.83,0-1.65.36-2.41.78l-.64-1.15c.89-.53,2.1-1.03,3.37-1.03,2.04,0,3.17,1.14,3.17,3.19v4.36h-1.43l-.13-.91h-.05c-.77.6-1.76,1.09-2.75,1.09-1.44,0-2.47-.88-2.47-2.16Zm5.09-.1v-1.55c-2.65.17-3.41.72-3.41,1.51,0,.65.57.93,1.3.93s1.43-.35,2.11-.89Z"/>
    <path class="cls-7" d="m122.86,20.05h-3.18v-1.37h4.92v7.37h-1.74v-5.99Zm-.48-3.87c0-.69.52-1.17,1.23-1.17s1.23.48,1.23,1.17-.52,1.16-1.23,1.16-1.23-.46-1.23-1.16Z"/>
    <path class="cls-7" d="m128.65,18.68h1.42l.13,1.11h.06c.7-.71,1.53-1.29,2.66-1.29,1.7,0,2.47,1.09,2.47,2.98v4.56h-1.73v-4.34c0-1.18-.38-1.72-1.37-1.72-.73,0-1.22.35-1.89,1.04v5.02h-1.73v-7.37Z"/>
    <path class="cls-7" d="m137.34,22.35c0-2.4,1.83-3.85,3.8-3.85,2.2,0,3.42,1.46,3.42,3.5,0,.35-.05.68-.08.87h-5.9v-1.22h4.78l-.33.38c0-1.46-.68-2.19-1.84-2.19-1.22,0-2.16.88-2.16,2.52s1.03,2.53,2.56,2.53c.77,0,1.41-.23,2.07-.6l.59,1.07c-.79.51-1.8.87-2.89.87-2.26,0-4.03-1.42-4.03-3.87Z"/>
    <path class="cls-7" d="m147.37,18.68h1.43l.15,1.68h.04c.75-1.2,1.87-1.86,3.13-1.86.6,0,1,.09,1.43.3l-.37,1.47c-.49-.15-.77-.23-1.33-.23-1.01,0-2,.52-2.75,1.95v4.06h-1.73v-7.37Z"/>
  </g>
  <g>
    <path id="path1948-2" data-name="path1948" class="cls-15" d="m65.82,58.3c-1.05,0-2.06.09-2.94.25-2.61.46-3.08,1.42-3.08,3.2v2.35h6.16v.78h-8.47c-1.79,0-3.36,1.08-3.85,3.12-.57,2.35-.59,3.81,0,6.26.44,1.82,1.48,3.12,3.27,3.12h2.12v-2.81c0-2.03,1.76-3.83,3.85-3.83h6.15c1.71,0,3.08-1.41,3.08-3.13v-5.87c0-1.67-1.41-2.92-3.08-3.2-1.06-.18-2.16-.26-3.21-.25Zm-3.33,1.89c.64,0,1.16.53,1.16,1.18,0,.65-.52,1.17-1.16,1.17-.64,0-1.16-.52-1.16-1.17s.52-1.18,1.16-1.18Z"/>
    <path id="path1950-2" data-name="path1950" class="cls-16" d="m72.88,64.88v2.74c0,2.12-1.8,3.91-3.85,3.91h-6.15c-1.69,0-3.08,1.44-3.08,3.13v5.87c0,1.67,1.45,2.65,3.08,3.13,1.95.57,3.82.68,6.15,0,1.55-.45,3.08-1.35,3.08-3.13v-2.35h-6.15v-.78h9.23c1.79,0,2.46-1.25,3.08-3.12.64-1.93.62-3.79,0-6.26-.44-1.78-1.29-3.12-3.08-3.12h-2.31Zm-3.46,14.86c.64,0,1.16.52,1.16,1.17s-.52,1.18-1.16,1.18-1.16-.53-1.16-1.18.52-1.17,1.16-1.17Z"/>
  </g>
  <g id="Layer_3-2" data-name="Layer_3">
    <path class="cls-2" d="m104.1,77.72c.17-1.4.12-1.6,1.16-1.38l.26.02c.8.04,1.85-.13,2.46-.41,1.32-.61,2.11-1.64.8-1.37-2.98.61-3.18-.39-3.18-.39,3.14-4.66,4.46-10.58,3.32-12.03-3.09-3.95-8.45-2.08-8.54-2.03h-.03c-.59-.12-1.25-.19-1.99-.2-1.35-.02-2.37.35-3.14.94,0,0-9.55-3.94-9.11,4.95.09,1.89,2.71,14.3,5.83,10.55,1.14-1.37,2.24-2.53,2.24-2.53.55.36,1.2.55,1.89.48l.05-.05c-.02.17,0,.34.02.53-.8.9-.57,1.06-2.17,1.39-1.62.33-.67.93-.05,1.09.76.19,2.5.46,3.68-1.2l-.05.19c.32.25.29,1.81.34,2.93.04,1.11.12,2.15.35,2.77.23.61.5,2.19,2.61,1.74,1.76-.38,3.11-.92,3.24-5.98"/>
    <path class="cls-9" d="m108.78,74.58c-2.98.61-3.18-.39-3.18-.39,3.14-4.66,4.46-10.58,3.32-12.03-3.09-3.95-8.45-2.08-8.54-2.03h-.03c-.59-.12-1.25-.19-1.99-.2-1.35-.02-2.37.35-3.14.94,0,0-9.55-3.93-9.11,4.95.09,1.89,2.71,14.3,5.83,10.55,1.14-1.37,2.24-2.53,2.24-2.53.55.36,1.2.55,1.89.48l.05-.05c-.02.17,0,.34.02.53-.8.9-.57,1.06-2.17,1.39-1.62.33-.67.93-.05,1.09.76.19,2.5.46,3.68-1.2l-.05.19c.31.25.54,1.64.5,2.9-.04,1.26-.06,2.12.19,2.8.25.67.5,2.19,2.61,1.74,1.76-.38,2.68-1.36,2.81-2.99.09-1.16.29-.99.31-2.03l.16-.49c.19-1.57.03-2.08,1.12-1.85l.26.02c.8.04,1.85-.13,2.46-.41,1.32-.61,2.11-1.64.8-1.37h0Z"/>
    <path class="cls-5" d="m97.75,75.49c-.08,2.93.02,5.88.31,6.6.29.72.9,2.11,3.01,1.66,1.76-.38,2.41-1.11,2.68-2.73.21-1.19.6-4.49.65-5.16"/>
    <path class="cls-5" d="m95.21,60.8s-9.56-3.91-9.11,4.98c.09,1.89,2.71,14.3,5.83,10.55,1.14-1.37,2.17-2.45,2.17-2.45"/>
    <path class="cls-5" d="m100.38,60.08c-.33.1,5.32-2.06,8.53,2.04,1.13,1.45-.18,7.37-3.32,12.03"/>
    <path class="cls-6" d="m105.58,74.15s.2,1.01,3.18.39c1.3-.27.52.76-.8,1.37-1.09.5-3.52.63-3.56-.06-.1-1.8,1.28-1.25,1.18-1.7-.09-.41-.71-.8-1.12-1.8-.36-.87-4.9-7.51,1.26-6.52.23-.05-1.61-5.86-7.37-5.95-5.76-.09-5.57,7.09-5.57,7.09"/>
    <path class="cls-5" d="m96.13,74.77c-.8.9-.57,1.06-2.17,1.39-1.62.33-.67.93-.05,1.09.76.19,2.5.46,3.68-1.2.36-.5,0-1.31-.5-1.51-.24-.1-.56-.22-.97.24h0Z"/>
    <path class="cls-5" d="m96.08,74.75c-.08-.53.17-1.16.45-1.89.41-1.1,1.35-2.2.6-5.7-.56-2.61-4.34-.54-4.35-.19,0,.35.17,1.79-.06,3.46-.31,2.18,1.39,4.03,3.34,3.84"/>
    <path class="cls-4" d="m95.18,66.92c-.02.12.22.44.53.49.31.04.57-.21.59-.33.02-.12-.22-.25-.53-.3-.31-.04-.58.02-.59.14h0Z"/>
    <path class="cls-3" d="m104.61,66.67c.02.12-.22.44-.53.49-.31.04-.58-.21-.59-.33-.02-.12.22-.25.53-.3s.58.02.59.14h0Z"/>
    <path class="cls-5" d="m105.72,65.84c.05.95-.2,1.59-.24,2.6-.05,1.46.7,3.14-.43,4.82"/>
  </g>
  <g>
    <path class="cls-8" d="m66.94,33.46h2.89v13.4c-1.48.28-2.57.39-3.76.39-3.53,0-5.37-1.6-5.37-4.66s1.95-4.87,4.98-4.87c.47,0,.83.04,1.26.15,0,0,0-4.41,0-4.41Zm0,6.74c-.34-.11-.62-.15-.98-.15-1.47,0-2.31.9-2.31,2.48s.81,2.39,2.29,2.39c.32,0,.58-.02,1-.08v-4.64Z"/>
    <path class="cls-8" d="m74.44,37.93v6.71c0,2.31-.17,3.42-.68,4.38-.47.92-1.09,1.5-2.37,2.14l-2.69-1.28c1.28-.6,1.9-1.13,2.29-1.94.41-.83.55-1.79.55-4.3v-5.71h2.89Zm-2.89-4.45h2.89v2.97h-2.89v-2.97Z"/>
    <path class="cls-8" d="m76.19,38.58c1.28-.6,2.5-.86,3.83-.86,1.48,0,2.46.39,2.89,1.17.24.43.32,1,.32,2.2v5.88c-1.3.19-2.93.32-4.13.32-2.42,0-3.51-.85-3.51-2.73,0-2.03,1.45-2.97,5-3.27v-.64c0-.53-.26-.71-1-.71-1.07,0-2.27.3-3.4.88v-2.24h0Zm4.53,4.6c-1.92.19-2.54.49-2.54,1.24,0,.56.36.83,1.15.83.43,0,.83-.04,1.39-.13v-1.94h0Z"/>
    <path class="cls-8" d="m84.64,38.38c1.71-.45,3.12-.66,4.55-.66s2.56.34,3.19,1c.6.62.79,1.3.79,2.74v5.68h-2.89v-5.56c0-1.11-.38-1.52-1.41-1.52-.39,0-.75.04-1.33.21v6.88h-2.89v-8.76Z"/>
    <path class="cls-8" d="m94.3,48.71c1.01.53,2.03.77,3.1.77,1.9,0,2.71-.77,2.71-2.61v-.06c-.56.28-1.13.39-1.88.39-2.54,0-4.15-1.67-4.15-4.32,0-3.29,2.39-5.15,6.61-5.15,1.24,0,2.39.13,3.78.41l-.99,2.09c-.77-.15-.06-.02-.64-.08v.3l.04,1.22.02,1.58c.02.39.02.79.04,1.18v.79c0,2.48-.21,3.65-.83,4.6-.9,1.41-2.46,2.1-4.68,2.1-1.13,0-2.1-.17-3.12-.56v-2.67h0Zm5.75-8.64h-.3c-.56-.02-1.22.13-1.67.41-.7.39-1.05,1.11-1.05,2.12,0,1.45.71,2.27,1.99,2.27.39,0,.71-.08,1.09-.19v-1c0-.34-.02-.71-.02-1.11l-.02-1.33-.02-.96v-.23h0Z"/>
    <path class="cls-8" d="m108.96,37.68c2.89,0,4.66,1.82,4.66,4.77s-1.84,4.92-4.77,4.92-4.68-1.82-4.68-4.75c0-3.04,1.84-4.94,4.79-4.94Zm-.06,7.37c1.11,0,1.77-.92,1.77-2.52s-.64-2.52-1.75-2.52-1.8.92-1.8,2.52c0,1.6.66,2.52,1.79,2.52Z"/>
  </g>
</svg>